<svg xmlns="http://www.w3.org/2000/svg" viewBox="0 0 270.9 113.3"><g fill-rule="evenodd" clip-rule="evenodd" fill="#FFF"><path d="M1.4 0h269.5v113.3H1.1V.7c0-.3 0-.7.3-.7zm1 1.7v110.6h267.4V.9C180.7 1 91.6 1 2.6 1c-.3 0-.3.3-.2.7z"/><path d="M93.6 24.7c-.6 1.2-1.5 2.2-3.6 1.9.8-1 1.4-2.2 3.6-1.9zM31.2 30.5c-1.7.4-2-.6-2.6-1.2-4.3-1.2-3.9 3.4-3.4 6.2 1.9 2.1 3.9-.6 6-.5.5 3.4-5.5 3.7-7.2 2.2-1.3-1.2-1.6-5.6-.7-7.7 1.2-3 8-2.8 7.9 1zM33.6 28.6c2.6-1.3 5.8-1.8 7.2.5 1.1 1.8.8 6.9-.5 8.2-1.4 1.3-5.5 1.2-6.7-.2-1.4-1.7-.9-6.5 0-8.5zm1.6 7.4c.8.3 2 .2 3.1.2 1.4-.9 1.3-5 .5-6.5-4.2-2.6-5.2 3.6-3.6 6.3zM134.8 30.5c-1.8.4-1.8-.9-2.9-1.2-4.1-1.1-3.6 3.6-3.1 6.2 1.2 1.5 5.2.9 4.3-1.9-.3-.7-2.1.2-2.4-.5v-.7c.5-1.1 2.8-.2 4.1-.5v6c-1.4-1.3-4.6 1.2-7-.5-1.7-1.2-1.8-6-1-7.9 1.4-3 7.8-3 8 1zM45.1 27.8c.1 2.7-.4 6.1.5 8.2.7.3 2.4.5 3.1 0 1.6-1.5-.1-6.4 1.2-8.2h.5c1.3.6.7 3 .7 4.6 0 1.8.2 3.6-.7 4.6-1.6 1.8-5.3 1.2-6.7-.5-.5-2.5-.1-5.8-.2-8.6.5-.1 1-.1 1.6-.1zM53.5 27.8c2.3.2 5.4-.4 7 .5.9.8 1.1 3.8 0 4.6 1.2.7.5 3.3.7 5h-1.7c-.1-1.2.3-3-.2-3.8-.9-.6-2.8-.1-4.1-.2V38h-1.7V27.8zm1.9 4.4c1.3-.1 3.2.3 3.8-.5.3-.7.3-1.2 0-1.9-1.6-1.3-5.6-.5-3.8 2.4zM62.4 27.8H67c1.2 0 3.7-.6 3.4 1-.2 1-2.2.2-3.1.5v8.6h-1.7v-8.4c-.6-.5-2.1-.1-3.1-.2-.1-.5-.1-1-.1-1.5zM75.3 27.8h2.4c.9 2.5 1.9 5 2.6 7.7 1.1-2.3 1.9-5 2.6-7.7h2.6v5.8c0 1.6.7 4.4-1.2 4.3-1.1-1.5-.2-5.1-.5-7.4-1.3 2.1-1.6 5.3-2.9 7.4-2.8.3-2.8-5.5-3.8-7.4-.6 2-.1 5-.2 7.4h-1.7c.1-3.3.1-6.7.1-10.1zM88.3 27.8c2.2.3 5.6-.6 7 .5 0 2-3.5.5-5 1-.5.4-.1 1.8-.2 2.6 1.5.4 4.7-.8 5 .7-.3 1.6-3.3.3-4.8.7-.5.6-.2 1.9-.2 2.9 1.7.2 4-.3 5.3.2.1 2.9-4.8.8-7 1.4-.1-3.2-.1-6.6-.1-10zM96.7 27.8h4.6c1.2 0 3.7-.6 3.4 1-.1 1-2 .2-2.9.5-.1 2.8.3 6.2-.2 8.6h-1.7v-8.4c-.6-.6-2.2-.1-3.1-.2-.1-.5-.1-1-.1-1.5zM106.5 27.8c2.3.2 5.4-.4 7 .5.8.7 1.2 3.7 0 4.3 1 1 .7 3.3.7 5.3h-1.7c-.1-1.2.3-3-.2-3.8-.9-.6-2.8-.1-4.1-.2V38h-1.7V27.8zm1.9 4.4c1.3-.1 3.2.3 3.8-.5.3-.7.3-1.2 0-1.9-1.6-1.3-5.6-.5-3.8 2.4zM121.6 27.8c1.1 3.5 2.7 6.4 3.6 10.1-2.2.5-2.3-1.2-2.6-2.6h-3.8c-.7.6-.6 1.9-1.2 2.6h-1.7c.9-3.6 2.7-6.5 3.6-10.1h2.1zm-2.4 5.8h2.6c-.4-1.3-.7-2.6-1.4-3.6-.2 1.3-.9 2.3-1.2 3.6zM137.5 27.8c2.2.3 5.6-.6 7 .5 0 2-3.3.5-4.8 1-.5.4-.1 1.8-.2 2.6 1.5.4 4.7-.8 5 .7-.3 1.6-3.3.3-4.8.7-.6.5-.1 2-.2 2.9 1.6.2 3.8-.3 5 .2v1c-1.3 1.1-4.6.2-6.7.5-.6-2.9-.2-6.8-.3-10.1zM117.6 49c-3.1.3-4.9-2.9-7.4-.5-.4.9-.2 2.4-.2 3.6h5.3v2.2h-5c-.6 3.6-.1 8.2-.2 12.2-.9-.1-2.1.2-2.6-.2V54.5c-.3-.5-1.5-.1-2.2-.2v-2.2h2.2c-2.7-7.3 9.3-8.9 10.1-3.1zM41.5 45.8v7c2.1-1 7.2-2 8.9.7 1.9 3.2.2 8.6.5 13h-2.4c-.4-3.9.9-9.6-1-12-7.9-2.7-5.6 6.7-6.2 12h-2.4V45.9c.8-.1 1.7-.1 2.6-.1zM129.8 45.8v20.6h-2.4V45.8h2.4zM121.9 47v1.7c-.7.9-2.2.9-2.9 0V47c.8-.8 2.1-.8 2.9 0zM89.2 46.6v5.3c1.6.6 4.2.1 6.2.2v2.2h-6.2c.1 4.4-1.2 12.3 3.8 10.1 1-.4.9-1.2 1.7-2.2h1.9c.4 4.6-5.5 5.7-8.4 3.8-2.9-1.9-1.2-7.2-1.7-11.5-.3-.5-1.7-.1-2.4-.2v-2.2h2.4c.4-2.5-1.1-6.7 2.7-5.5zM35.2 56.2h-1.9c-.9-.3-.5-1.7-1.4-1.9-1.7-.4-4.6-.5-5.8.5-2.5 5.4 6.6 1.7 8.6 4.8.6.9.9 3.8 0 5.3-1.8 3.1-12.5 3.3-11.8-2.6h1.9c.5 2.8 5.9 3.1 7.7 1.2-.1-.8.2-1.9-.2-2.4-2.3-1.5-6.5 0-8.2-1.7-1.5-1.5-1.3-4.9 0-6.2 2.7-2.8 11.9-2.2 11.1 3zM59 52.1c2.9-.6 6.1-.2 7.4 1.2 2.1 2.3 1.6 9.7.2 11.5-1.9 2.5-9.3 2.8-11.3-.2-1.5-2.4-1.5-9 .2-11 .9-1 1.5-1.1 3.5-1.5zm5.8 3.3c-1.2-1.9-5.9-2-7.2 0-.9 1.5-1.2 6.3.2 7.9 1.1 1.3 4.7 1.4 6.5.2 1-2.1 1.7-6.1.5-8.1zM82.5 56.2h-2.6c.2-1.1-.4-1.4-.7-1.9-6.6-1.7-5.1 6.6-5.3 12.2h-2.4V52.1h1.9c.7-.2.4.5.5 1 2-1.9 9.4-2 8.6 3.1zM145.9 53.5c2-1.9 6.4-2.5 8.4-.7 2.9 2.6.3 9.1 1.2 13.7-.9-.1-2.1.2-2.6-.2-.2-3.6.3-7.8-.2-11-6.3-4.5-6.2 5.3-5.8 11-.5.4-1.8.2-2.6.2-.2-3.7.3-8-.2-11.3-6.5-4.5-6.3 5.6-6 11.3h-2.4V52.1c.9.2 2.9-.6 2.4 1 .9-1.2 6.7-2.2 7.8.4zM178.5 56.2c-2.4.9-2.4-1.4-3.8-1.9-1.7-.7-4.6-.3-5.5 1-1.4 1.9-1.1 8.3 1.7 9.1.9.3 2.7.2 3.8-.2 1.4-.6.8-2.4 3.6-1.9.7 5.4-8.2 5.7-10.8 3.1-2.1-2-2.3-8.9-.5-11.5 2.1-3.1 11.9-3.3 11.5 2.3zM186 52.1c2.6-.5 6-.3 7.4 1.4 1.7 2 2 9.2 0 11.5-2.1 2.3-8.4 2.6-10.8 0-1.9-2.1-1.8-9.1-.2-11.3.7-1 2.3-1.4 3.6-1.6zm5.7 10.8c.8-1.6.8-6.3-.2-7.7-1.2-1.6-5.7-1.7-7 0-1.6 2.1 0 5-.2 7.7 1.7 1.9 6.2 2.4 7.4 0zM209.2 56.2h-1.9c-.8 0-.4-1.4-1-1.7-6.7-2.6-5.6 6.3-5.5 12-.9-.1-2.1.2-2.6-.2V52.1h1.9c.7-.2.4.5.5 1 1.9-1.7 9.7-2.3 8.6 3.1zM223.9 66.2c-.5.4-1.8.2-2.6.2-.5-4 1.3-10.4-1.4-12.2-7.5-1.7-5.2 6.5-5.5 12-.5.4-1.8.2-2.6.2V52c.9.2 2.9-.6 2.4 1 2-1.3 7.4-2.2 9.1.5 1.9 3.1-.2 8.1.6 12.7zM240 60c-3.3.2-7.2-.3-10.1.2-.4 4.1 3.4 5.2 6.2 3.8 1.4-.7 1.6-2.7 3.6-1.9.6 5.8-9.5 5.5-11.5 2.4-1.6-2.5-1.6-10.2 1.4-12 4.5-2.6 12.4.2 10.4 7.5zm-10.1-2.2h7.7c1.2-5.4-8.8-5-7.7 0zM254.8 56.2h-2.4c-.2-.7-.5-1.5-1-1.9-6.6-1.7-5.1 6.6-5.3 12.2h-2.4V52.1h1.9c.7-.2.4.5.5 1 2.1-1.9 9.5-2 8.7 3.1zM121.6 52.1v14.4h-2.4V52.1h2.4zM49.2 80.4c-2.1.5-1.9-1.1-3.1-1.4-1.9-.3-4.1.4-3.1 2.2 1.9 1.2 4 0 5.3 1 4.7 3.3-3.8 8.5-6.7 5-.4-.5-.4-1-.5-2.2 1.6-.4 1.8.6 2.4 1.2 1.9.4 4.8.1 3.8-2.2-3.3-.3-8.2-1.2-5.8-5.8 2.2-1.3 7.9-1.6 7.7 2.2zM125.7 80.4c-2.1.5-1.9-1.1-3.1-1.4-4.3-1.1-3.9 5.4-2.4 7.2 3 .8 3.1-1.4 5.5-1.2 0 4.1-6.7 3.7-7.9 1.4-1-1.9-.9-6.8.5-8.2 1.6-1.7 7.8-1.5 7.4 2.2zM176.8 80.2c-1.6 1.1-2.1-.9-3.1-1.2-2.2-.2-3.7.3-3.4 1.7.5 2.1 4.9.2 6 1.9 3.7 5.5-7.8 7.7-7.9 2.4 1.7-.5 1.9.6 2.6 1.2 1.5.2 2.7.2 3.8-.5v-1.9c-1.9-.5-4.7-.1-6-1.2-3.2-5.6 7.6-7.4 8-2.4zM190 78c.8 1.2.8 3.1.2 4.6-1.3 1.5-4.9.7-5 3.4 1 1 3.8.2 5.5.5.3 3.3-4.9 1-7.2 1.7 0-1.7-.2-3.7.5-4.8 1.5-1.3 5.3-.3 4.8-3.6-1.5-2.1-3.3.5-5.3.2-.4-3.3 4.7-3.2 6.5-2zM198.9 78c1.3 2.1 1.3 7.2 0 9.4-8.8 5.7-8.8-15.2 0-9.4zm-4.1 8.2c.6.5 2 .2 2.6 0 .7-1.6.7-5.4 0-7-4.1-2.2-3.4 4.9-2.6 7zM205.9 77.5v8.6c.3.5 1.7.1 2.4.2v1.4h-6.7v-1.4h2.4v-6.2c-.6-.5-.8 1.3-1.9 1-.2-.3-.4-.7-.7-1 1-1.1 2.2-3.4 4.5-2.6zM209.7 77.3c2.2.6 7.1-1.5 6.7 1.7h-4.8c-.5.3-.1 1.5-.2 2.2.8-.1 3.6-.5 4.6.5 4.2 5.5-5.5 9.5-6.5 3.8 2.2-.3 2.8 1.9 5 .7.5-.6.1-2.1.2-3.1-2.1-1.6-3 .9-5 .7v-6.5zM23 77.5c2.2.2 5.1-.3 7 .2v1c-.7 1.1-3.3.2-4.8.5-.5.4-.1 1.8-.2 2.6 1.5.4 4.7-.8 5 .7-.4 1.6-3.5.3-5 .7v4.6h-1.9C23 84.4 23 81 23 77.5zM31.9 77.5c2.3.2 5.3-.3 7.2.2v1c-.8 1.1-3.5.2-5 .5-.5.4-.1 1.8-.2 2.6 1.5.4 4.7-.8 5 .7-.3 1.6-3.3.3-4.8.7-.6.5-.1 2-.2 2.9 1.7.2 4-.3 5.3.2v1c-1.5 1.1-4.9.2-7.2.5-.1-3.4-.1-6.8-.1-10.3zM50.1 77.5h8.2v1.7h-3.1v8.6h-1.9v-8.4c-.6-.6-2.2-.1-3.1-.2-.1-.6-.1-1.1-.1-1.7zM61.4 77.5c-.2 3.4.3 7.4-.2 10.3h-1c-1.1-2.5-.2-7-.5-10.3h1.7zM62.8 77.5h1.9c.8 2.6 1.8 5.1 2.6 7.7 1.3-2.3 1.9-5.1 2.9-7.7h1.9c-1.2 3.6-2.5 6.9-3.8 10.3h-1.9c-.9-3.7-2.6-6.6-3.6-10.3zM77.5 77.5c1.3 3.4 2.8 6.7 3.8 10.3h-1.9c-.2-1-.7-1.7-1-2.6h-3.8c-.4.8-.9 1.5-1 2.6h-1.9c1.1-3.7 2.6-6.8 3.8-10.3h2zm-2.4 6h2.6c-.4-1.3-.5-2.9-1.4-3.6-.4 1.3-.8 2.5-1.2 3.6zM84.7 77.5v8.6c1.6.2 3.8-.3 5 .2v1c-1.4 1.1-4.8.2-7 .5V77.5h2zM94.5 87.8V77.5c3 .4 5.4-.9 7.2.7 1.3 1.2 1.8 6.9.2 8.6-1.8 2.1-4.4.5-7.4 1zm1.7-1.9c1.1.5 3.5.3 4.3-.2.6-1.8.7-4.7-.2-6.2-1-.4-2.7-.2-4.1-.2v6.6zM104.8 77.5c2.3.2 5.3-.3 7.2.2v1c-.8 1.1-3.5.2-5 .5-.5.4-.1 1.8-.2 2.6 1.5.4 4.7-.8 5 .7-.3 1.6-3.3.3-4.8.7-.6.5-.1 2-.2 2.9 1.7.2 4-.3 5.3.2v1c-1.5 1.1-4.9.2-7.2.5-.1-3.4-.1-6.8-.1-10.3zM132.4 77.5c1.2 3.6 2.6 6.8 3.8 10.3h-1.9c-.4-.8-.7-1.7-1-2.6h-3.8c-.8.5-.7 1.9-1.2 2.6h-1.9c1.2-3.5 2.7-6.7 3.8-10.3h2.2zm-2.4 6h2.6c-.4-1.4-.8-2.7-1.4-3.8-.2 1.4-1 2.3-1.2 3.8zM137.5 77.5h2.2c1.1 2.5 2.7 4.5 3.8 7 .6-1.8.1-4.7.2-7h1.7v10.3c-3.4.3-4.1-5.1-5.8-7-.6 1.8-.1 4.7-.2 7h-1.9V77.5zM148.5 77.5h2.2c1 2.6 2.7 4.5 3.8 7 .6-1.8.1-4.7.2-7h1.7v10.3c-3.5.4-4.3-5.5-6-7.2-.6 1.9-.1 4.9-.2 7.2h-1.7V77.5zM159.6 77.5c2.3.2 5.3-.3 7.2.2v1c-.8 1.1-3.5.2-5 .5-.5.4-.1 1.8-.2 2.6 1.5.4 4.7-.8 5 .7-.3 1.6-3.3.3-4.8.7-.6.5-.1 2-.2 2.9 1.7.2 4-.3 5.3.2v1c-1.5 1.1-4.9.2-7.2.5-.1-3.4-.1-6.8-.1-10.3z"/></g></svg>