<svg xmlns="http://www.w3.org/2000/svg" xmlns:xlink="http://www.w3.org/1999/xlink" viewBox="-332 510.1 112 126"><path fill="none" stroke="#040304" stroke-miterlimit="10" d="M-297.9 529.3l21 .3 21 .2-11 48.6-11 48.6-10-48.8zM-323.5 520.1l25.2 9.6 20 97.7z"/><defs><path id="a" d="M-404.4 336.1h595.3V1178h-595.3z"/></defs><clipPath id="b"><use xlink:href="#a" overflow="visible"/></clipPath><path clip-path="url(#b)" fill="none" stroke="#040304" stroke-miterlimit="10" d="M-278.1 627.5l49.7-107.2-27.8 9.6-21.9 97.6z"/><defs><path id="c" d="M-404.4 336.1h595.3V1178h-595.3z"/></defs><clipPath id="d"><use xlink:href="#c" overflow="visible"/></clipPath><path clip-path="url(#d)" fill="none" stroke="#040304" stroke-miterlimit="10" d="M-255.4 564.6l-1.7 4.1"/><g><defs><path id="e" d="M-404.4 336.1h595.3V1178h-595.3z"/></defs><clipPath id="f"><use xlink:href="#e" overflow="visible"/></clipPath><path clip-path="url(#f)" fill="none" stroke="#040304" stroke-miterlimit="10" d="M-297.9 564.6l1.8 4.1"/></g><g><defs><path id="g" d="M-404.4 336.1h595.3V1178h-595.3z"/></defs><clipPath id="h"><use xlink:href="#g" overflow="visible"/></clipPath><path clip-path="url(#h)" fill="#040304" d="M-288.8 529.7h23l-5.6 33.7-5.7 33.7-5.8-33.7"/></g></svg>