<svg xmlns="http://www.w3.org/2000/svg" width="841.89" height="595.28" viewBox="0 0 841.89 595.28"><g fill-rule="evenodd" clip-rule="evenodd" fill="#F8F8F8"><path d="M391.492 9.578h20.4c76.52 4.122 132.15 31.587 175.92 69.36 31.048 26.793 56.357 59.83 74.16 100.56 14.303 32.72 23.998 70.255 24 115.92.002 45.118-10.327 82.816-24.96 114.96-14.678 32.24-33.762 59.92-56.88 83.04-46.842 46.843-106.818 80.23-195.12 84.72h-14.64c-.053-.188-.2-.28-.48-.24-44.362-1.15-81.333-11.843-113.04-26.64-31.697-14.793-58.502-34.74-81.84-58.08-22.95-22.952-42.5-50.855-56.88-83.04-14.443-32.324-24.72-69.95-24.72-115.2 0-45.378 9.723-83.118 24-115.68 21.254-48.475 53.497-86.73 93.84-115.92 40.653-29.413 90.526-50.408 156.24-53.76zm-156.48 57.6c-26.475 19.26-50.383 44.14-68.4 72-8.877 13.727-17.25 29.332-24.24 46.08-13.348 31.984-23.544 72.417-21.6 118.56 1.885 44.72 12.788 80.205 27.84 112.56 14.705 31.61 35.496 58.874 59.28 81.36 24.117 22.802 51.954 41.364 85.2 55.44 33.075 14.004 72.04 22.712 118.56 21.6 43.28-1.034 81.074-12.85 112.56-27.84 31.88-15.177 58.66-35.27 81.36-59.28 22.728-24.042 41.385-51.71 55.44-84.96 13.788-32.617 23.698-72.3 21.6-118.56-1.985-43.745-12.1-81.266-27.6-112.8-30.59-62.232-78.98-109.068-144.48-136.8-32.22-13.64-73.643-23.762-119.04-21.6-67.074 3.194-116.1 24.864-156.48 54.24z"/><path d="M398.212 25.178c21.048-1.002 43.66 1.897 61.44 5.76 54.51 11.843 97.888 37.65 130.8 70.56 22.822 22.822 41.502 47.49 55.92 78.24 14.312 30.526 24.02 66.618 25.2 108.96 1.22 43.747-8.79 81.94-22.32 112.08-13.99 31.164-31.42 57.578-54 80.16-22.187 22.187-47.265 41.575-78.24 55.92-30.17 13.97-67.26 25.2-108.96 25.2-66.517 0-114.967-19.3-155.52-46.08-13.352-8.817-25.916-18.955-36.96-30-22.22-22.22-41.41-47.565-55.68-78.48-14.152-30.654-24.594-65.938-25.44-108.72-1.313-66.418 19.95-116.334 46.08-155.52 26.44-39.647 62.742-71.548 108.24-92.88 29.837-13.987 66.198-25.2 108.96-25.2.16 0 .32.007.48 0zm-.48 3.12c-42.366 0-77.945 11.158-107.52 24.96-30.428 14.2-55.765 33.003-77.52 55.2-22.402 22.855-39.582 47.8-53.28 79.44-12.963 29.942-22.7 67.408-21.84 110.88.835 42.264 11.09 77.242 24.96 107.52 13.915 30.375 33.397 55.716 55.2 77.52 22.134 22.136 48.818 39.854 79.44 53.28 31.062 13.62 67.477 21.843 110.88 21.84 41.212-.002 77.782-11.082 107.52-24.96 30.76-14.354 55.454-33.134 77.52-55.2 22.247-22.246 39.884-48.348 53.28-79.44 13.25-30.75 23.297-66.94 22.08-110.64-1.166-41.903-10.92-77.34-24.96-107.52-14.274-30.683-32.556-54.876-55.2-77.52-21.854-21.853-48.096-39.925-79.2-53.52-29.136-12.733-68.777-23.844-110.88-21.84-.16.007-.32 0-.48 0z"/><path d="M297.652 205.897c12.74-1.02 7.028 21.296-4.8 17.52-1.75-.56-3.18-2.395-3.6-3.36-2.8-6.424 2.204-13.663 8.4-14.16zM317.812 205.897c2.5-.254 4.515.508 5.52 1.44 5.395 5.005-.25 14.283-4.56 15.84-5.242 1.894-9.646-1.677-9.84-6.24-.25-5.884 3.452-10.487 8.88-11.04zM276.052 322.058h16.32v11.04h-11.04c-.72 19.6.24 40.88-.48 60.48h-10.8v-60.24c-3.28-.56-7.6-.08-11.28-.24-.55-3.21-.086-7.434-.24-11.04 5.44-.16 11.52.32 16.56-.24M255.652 337.657c-3.403.757-6.987 1.334-10.56 1.92-.254-4.247-2.056-9.564-7.92-8.4-4.04.804-4.896 6.494-4.08 10.32 1.3 6.092 7.184 10.174 12.48 15.12 5.042 4.71 10.596 10.812 10.8 19.2.268 11.016-6.857 19.675-19.68 18.48-10.333-.963-14.973-8.25-16.08-20.4 3.485-.194 6.862-.497 10.32-.72.764 4.575 1.986 10.754 7.2 11.04 6.32.347 8.082-6.61 6.48-11.52-1.846-5.658-8.228-9.873-13.2-14.4-4.768-4.342-9.274-10.177-9.84-17.52-.79-10.258 4.097-18.73 14.88-19.68 12.287-1.08 17.766 5.702 19.2 16.56zM303.892 322.058h14.64c4.162 23.678 8.077 47.604 12 71.52h-11.52c-.736-5.503-1.694-10.785-2.4-16.32h-10.8c-1.396 5.005-1.89 10.91-2.88 16.32h-11.28c3.7-23.26 7.77-48.23 12.24-71.52zm3.36 44.4h7.68c-1.512-8.648-2.146-18.175-4.08-26.4-.997 9.004-2.494 17.506-3.6 26.4zM336.292 322.058c7.756.965 15.102-1.494 21.84.48 5.354 1.568 11.275 7.442 12 15.12.494 5.235 0 12.707 0 20.16 0 9.194.944 19.53-1.44 25.2-4.877 11.593-15.84 11.002-32.4 10.56-.56-23.12-.08-47.28-.24-70.8-.02-.34-.04-.68.24-.72zm10.8 11.76v48.72c2.564-.28 6.904.563 9.12-.48 3.73-1.757 3.12-7.27 3.12-13.2v-11.04c0-5.808 1.315-17.182-.48-21.36-1.575-3.666-6.745-3.614-11.52-3.36-.28.04-.26.38-.24.72zM375.892 322.058h33.6v10.8c-3.368.552-7.754.086-11.52.24v60.48h-10.8c-.56-19.68-.08-40.4-.24-60.48h-11.28c.16-3.6-.32-7.84.24-11.04zM416.452 322.058c14.002.09 25.876-2.02 31.44 7.44 3.787 6.438 3.683 21.005.48 27.6-3.32 6.834-9.758 10.462-20.88 9.6-.56 8.48-.08 18-.24 26.88h-10.8c-.56-23.12-.08-47.28-.24-70.8-.02-.34-.04-.68.24-.72zm10.8 33.6c3.85-.444 5.423.726 8.4-.24 4.197-1.362 3.84-6.65 3.84-12.96 0-9.078-3.125-9.992-12-9.36-.56 7.04-.08 15.12-.24 22.56zM457.252 322.058h10.8v60.48h18.48c-.154 3.606.31 7.83-.24 11.04h-29.28v-70.8c-.02-.34-.04-.68.24-.72zM517.492 322.058c3.862 23.737 8.412 48.067 11.76 71.52h-11.28c-.794-5.445-1.82-10.66-2.4-16.32h-11.04c-1.123 5.277-1.655 11.146-2.88 16.32h-11.04c3.612-23.348 7.676-48.324 12.24-71.52h14.64zm-11.28 44.4c2.48-.16 5.6.318 7.68-.24-1.657-8.582-2.328-18.15-4.08-26.64-.994 9.166-2.58 17.74-3.6 26.88zM535.252 322.058h12.24c4.42 15.74 9.298 31.02 13.68 46.8.56-15.12.08-31.28.24-46.8h11.04v71.28c-3.448.552-7.915.086-11.76.24-4.81-14.95-9.747-29.774-14.4-44.88-.56 14.48-.08 30-.24 44.88h-10.8c-.56-23.12-.08-47.28-.24-70.8-.02-.34-.04-.68.24-.72z"/><path d="M583.972 240.938c5.498-5.39 9.263-13.574 20.4-13.44 5.055.06 8.94 3.193 10.08 7.92 2.488 10.325-2.64 23.258-5.76 33.12-1.565 4.947-3.076 9.938-4.32 15.6-1.057 4.808-2.732 14.895 1.92 15.36 4.94.494 9.9-10.218 11.52-13.44 3.06-6.086 4.858-11.705 7.44-17.52 1.987.493 3.918 1.042 5.04 2.4-2.535 7.644-5.608 14.98-9.12 22.08-3.278 6.63-7.123 13.725-13.44 17.52-3.647 2.192-10.177 2.915-14.16.48-11.79-7.206-4.48-30.9-.72-42.72 1.305-4.102 3.138-8.98 4.32-13.44 1.124-4.24 2.938-13.29-.24-14.16-2.818-.772-6.27 2.722-7.68 4.56-5.408 7.058-8.314 17.244-10.56 26.16-3.23 12.814-5.283 27.328-8.16 40.56-5.204-.156-11.036.315-15.84-.24.53-4.748 1.323-9.236 2.16-13.68-5.1 7.442-13.096 16.668-25.92 15.6-13.095-1.09-18.422-12.55-19.68-26.4-2.842 5.12-5.06 10.65-8.642 15.6-3.507 4.85-12.686 13.847-21.84 8.4-11.656-6.934-4.896-30.825-.96-42.72 1.38-4.17 2.863-8.402 4.32-13.92.7-2.647 3.812-12.943-.24-13.92-5.865-1.412-10.206 8.653-11.76 12.24-7.435 17.173-9.815 37.3-12.96 58.8h-14.88c-.093-6.33-.04-12.52 1.2-17.52-6.932 7.783-13.822 20.88-29.28 19.44-13.008-1.212-16.906-14.03-18-27.84-2.395 4.847-5.17 10.445-8.88 15.84-3.006 4.372-7.604 10.4-13.44 11.04-9.255 1.015-10.433-9.247-10.32-18.96-3.4 8.85-12.33 24.505-24.72 18.96-6.894-3.085-8.117-11.918-8.4-22.08-3.667 5.578-8.66 17.936-16.32 21.36-10.172 4.547-14.08-7.906-12.96-18.24-4.336 8.493-8.027 18.89-19.2 19.92-11.473 1.056-13.954-10.477-14.16-22.08-4.864 7.07-9.12 19.595-20.16 21.12-9.525 1.314-14.217-5.595-14.88-13.2-1.698-19.472 9.17-33.98 11.28-51.36.395-3.253.51-6.452-1.2-7.2-2.875-1.26-6.207 2.418-7.68 4.32-12.962 16.734-13.056 43.83-19.68 66.72h-16.32c3.684-20.394 8.994-39.394 12-61.44.4-2.944 1.046-7.686-.96-8.4-3.147-1.12-6.08 3.185-7.2 4.8-11.27 16.257-11.94 43.373-17.52 65.04h-15.6c.066-10.35 3.884-20.35 6.48-29.76 1.158-4.198 1.403-8.866 2.16-13.2 2.237-12.804 4.53-25.848 6.72-39.36h15.6c-.637 4.243-1.387 8.373-2.16 12.48 3.256-4.052 7.407-10.922 13.44-13.44 9.99-4.17 17.594 3.143 15.6 14.88 5.182-6.33 10.896-16.135 22.08-16.08 5.71.028 9.898 3.926 10.56 9.84 1.31 11.704-3.214 22.542-6.24 32.16-1.35 4.294-3.188 9.347-4.32 14.88-.878 4.296-2.478 14.516 1.92 15.12 5.347.735 10.27-10.687 12.72-16.08 1.61-3.54 3.01-6.805 4.32-10.08 1.382-3.454 2.2-6.96 3.36-10.8 3.727-12.34 10.93-30.582 22.8-34.32 8.56-2.696 14.375 3.223 15.6 10.32.85-2.75 1.204-5.996 1.92-8.88h12.96c-3.712 16.637-7.093 34.02-9.84 52.08-.872 5.73-2.993 11.974-.96 17.76 3.127-.63 4.928-3.984 6.72-6.72 4.938-7.54 10.037-17.28 12.72-27.36 3.7-13.9 9.573-28.2 18.72-34.8 2.86-2.064 9.34-4.172 13.92-1.92 3.6 1.77 5.254 5.48 6.24 10.32 4.46-22.82 8.21-46.35 12.72-69.12h14.16c-1.566 22.044-5.582 42.145-10.08 62.16-3.303 14.7-6.662 29.142-8.64 45.84-.6 5.056-2.17 10.846.24 15.84 5.4-.956 7.38-6.866 9.6-11.28 2.225-4.426 5.085-9.424 6.48-14.4 1.333-4.757 1.885-9.378 3.6-13.92 4.25-11.255 13.247-28.067 29.52-26.4 17.94 1.837 13.313 31.402 6.72 43.2-4.037-1.962-7.94-4.06-11.76-6.24 1.907-3.53 3.817-7.123 5.04-12 .787-3.134 2.198-12.075-1.44-13.44-2.072-.778-5.056.962-6.48 2.16-5.917 4.98-8.99 14.302-10.8 24.24-2.52 13.837-2.28 34.222 13.2 32.4 6.502-.765 11.622-6.65 15.12-11.52 3.69-5.133 7.533-11.48 9.12-17.28 1.197-4.372 1.54-9.67 2.4-14.64 4.12-23.768 8.073-47.44 15.36-68.88 2.722-8.008 6.67-16.734 15.84-17.76 8.752-.98 14.245 3.267 14.4 11.28.11 5.722-2.113 11.25-4.08 16.08-4.9 12.03-11.147 21.966-18.48 31.68-1.42 1.883-3.705 3.936-4.32 5.52-1.095 2.826-.438 6.083-1.68 8.64 5.543-5.585 10.247-14.372 21.6-13.68 6.385.39 9.78 5.533 9.84 12.72.097 11.29-3.767 20.545-6.72 30-1.332 4.268-3.025 9.103-4.08 14.16-.835 4.01-2.36 13.9 1.44 14.88 3.358.865 6.842-3.844 8.64-6.72 4.282-6.85 6.635-13.166 9.6-20.64 1.48-3.728 2.23-7.925 3.36-11.76 2.305-7.804 5.13-14.602 9.84-20.64 4.71-6.036 11.836-12.796 22.32-11.76 7.707.76 12.462 7.24 11.76 17.04-.644 8.994-5.663 15.933-10.8 20.88-5.6 5.394-12.646 9.106-21.12 10.56-.02 9.525.746 18.34 6.96 21.12 3.09 1.382 7.7.63 10.32-.48 4.923-2.084 9.13-6.868 12.24-11.76 3.027-4.76 6-10.27 7.68-16.32 3.3-11.885 3.96-26.84 6.48-39.12h15.84c-.613 3.785-1.137 7.66-1.918 11.28zm-97.68-60.48c-5.37 9.59-7.372 23.83-9.84 35.52 3.88-8.14 8.35-16.318 11.04-25.68.898-3.126 2.47-6.79.72-10.32-.816-.017-1.675-.075-1.92.48zm58.56 69.12c.77-2.157 2.338-8.407 0-10.08-1.735-1.243-4.937.365-6 1.2-6.614 5.197-10.646 19.107-11.76 28.32 7.7-4.515 14.43-10.113 17.76-19.44zm-251.76 2.4c-3.023 7.303-5.594 16.497-6.96 25.2-.8 5.1-2.89 20.026 2.16 20.88 3.716.628 6.936-4.706 8.64-7.68 2.285-3.986 3.49-7.137 5.04-11.52 3.03-8.564 5.624-16.757 5.28-27.6-.15-4.748-1.462-11.317-6.48-10.08-3.45.85-6.053 6.87-7.68 10.8zm61.92 1.68c-3.51 9.115-5.895 18.562-6.96 29.52-.595 6.124-.61 14.328 2.88 14.88 3.72.588 6.94-5.095 8.64-8.16 2.262-4.075 3.305-6.647 5.04-11.76 2.976-8.77 5.865-17.218 5.04-28.56-.31-4.242-1.962-9.536-6.48-8.4-4.044 1.016-6.525 8.235-8.16 12.48zm-19.68 15.12"/></g></svg>