<svg xmlns="http://www.w3.org/2000/svg" width="841.89" height="595.28" viewBox="0 0 841.89 595.28"><g fill-rule="evenodd" clip-rule="evenodd" fill="#F8F8F8"><path d="M178.532 134.7c-5.105 2.308-14.856-.032-18.7 3.538-2.353 49.202-.342 102.763-1.01 153.647h69.746c11.688 0 25.395 2.2 28.304-6.064 2.965-8.423-2.304-17.943-8.087-19.206-8.325-1.817-11.575 5.72-19.207 5.054-9.73-.85-12.515-14.63-6.065-21.733 4.543-5.002 14.3-6.546 21.228-4.043 13.882 5.014 18.057 26.307 14.658 48.014-39.93.842-83.394.843-123.323 0 5.33-2.757 16.168-.004 19.71-4.548.843-48.86.844-101.25 0-150.11-3.154-4.763-13.158-2.677-19.71-4.043-.082-.587.112-.898.506-1.01 13.817.335 28.98-.674 41.952.505zM540.918 184.736c.33 34.713-.665 70.75.505 104.623 3.803 3.947 12.87 2.628 19.206 4.042-11.458 1.988-29.163 1.023-41.95.505 5.31-2.44 15.152-.346 19.206-4.043.84-32.35.844-68.23 0-100.578-5.188-5.092-11.804-2.248-16.174-3.538-13.035-3.85-12.697-25.833-3.538-36.39 5.24-6.038 25.954-14.567 28.304-2.527 1.238 6.348-2.882 9.582-6.065 10.11-4.944.82-8.855-4.94-15.668-4.55-7.727.444-12.422 10.09-11.118 20.218 1.455 11.31 11.966 13.398 27.29 12.128zM374.635 238.31c-35.805-3-82.166 9.224-91.48-16.173-1.843-5.02-1.236-13.197 1.01-17.69 3.42-6.845 22.102-12.996 24.765-1.01 2.15 9.672-7.582 10.336-7.582 20.217 0 21.764 46.004 9.357 67.22 12.636 5.74-6.206 1.747-14.76-.504-20.722-6.432-17.037-22.563-30.578-45.488-29.314-10.87.598-16.843 4.885-26.282 7.58-.478-1.32 2.086-2.73 3.54-3.537 34.536-19.2 78.933 6.807 74.8 48.014zM410.014 224.16c3.254-3.525 4.327-8.222 6.57-12.13 6.3-10.98 17.636-23.022 31.843-26.788 13.156-3.49 29.288.536 35.885 6.064 17.4 14.586 6.106 73.04 9.097 100.578.513 4.723 2.935 11.856 6.57 12.636 5.842 1.252 19.077-12.027 25.27-.505 6.668 12.402-8.91 21.486-21.227 18.194-14.732-3.938-13.646-27.506-13.646-49.532 0-22.502 1.758-46.02 0-63.178-1.68-16.4-17.235-24.87-36.39-22.743-24.23 2.69-42.615 29.5-44.478 55.09-1.17 16.055.445 30.985.505 47.005 3.37 5.222 14.214 2.97 21.228 4.55-12.336 1.99-30.813 1.02-44.478.504 5.518-2.57 16.164-.01 19.71-4.548.845-32.355.84-68.224 0-100.58-2.525-2.864-8.717-2.063-13.14-3.03 2.942-.83 11.815-2.147 14.152-1.518 3.356.904 2.022 4.248 2.022 8.592 0 8.5-.368 26.01.504 31.337zM277.088 217.588c.588-.082.9.11 1.01.505 1.695 5.518-1.13 9.644-1.515 14.657-2.54 32.98 15.504 59.995 47.51 60.145 17.22.082 30.02-6.085 38.917-15.162 2.82-2.876 5.135-6.452 8.592-9.1-4.605 16.632-28.807 27.57-50.037 26.283-36.732-2.225-56.07-38.665-44.477-77.328z"/></g></svg>