<svg xmlns="http://www.w3.org/2000/svg" viewBox="-300.3 492.6 348.5 106.7"><path d="M44.2 508.4v75.8h-6.5v-48c-2.9 10.3-5.4 21-8.2 31.4-2.8-10.2-5.4-20.5-7.9-31-.6 15.4-.1 31.8-.2 47.5h-6.5c.2-25.3-.3-51.2.2-76.1h6.2c2.4 11.2 5.5 21.9 7.9 33.1 3.2-10.6 5.6-22.1 8.4-33.1 2.3.3 4.9-.1 6.6.4zM10.2 578v6.2h-21.6v-75.4c0-.3 0-.7.2-.7 2 .1 4.6-.3 6.2.2v69.4c4.6.7 10.2.2 15.2.3zM-18.4 508.2v76.1h-6.5v-75.4c0-.3 0-.7.2-.7h6.3zM-29.9 508.2v6.5h-14.9c-.6 8.9-.1 18.8-.2 28.1 3.7.6 8.4.1 12.5.2.5 1.7.1 4.4.2 6.5H-45v34.8h-6.5c.2-25.3-.3-51.2.2-76.1h21.4zM-69.8 510.8c3.8-1.4 7.4-2.5 10.6-3.4-11.8 25.7-24 51.1-35.5 77-10.6-25.9-21.4-51.6-32.4-77 4.9.2 13.3 5.9 18.7 6.7 4.3.7 9.5 0 14.2.2 4.8.2 9.9.6 14.2 0 3.3-.3 7-2.3 10.2-3.5zm8.4-1.4c-6.1 1.8-11.9 4-17.8 6-4.4 20.5-9 40.8-13.7 61 0 .2.1.6.2.2 10.6-22.3 20.9-44.8 31.3-67.2zm-18.9 6.2c-2.2.2-3.6-.4-5.8-.2-2.8 15.2-5 31-7.9 46.1-2.6-15.4-5.4-30.6-7.9-46.1-2.3.2-3.8-.4-6-.2 4.4 21.5 8.6 43 13.2 64.3 4.8-21.3 9.7-42.5 14.4-63.9zm-16.6 60.5c-3.4-19.1-8.3-41.1-12.2-61-5.2-2-10.5-4.1-15.8-6 9.2 22.5 18.8 44.6 28 67z"/><path d="M-79.6 538.7c.7-.2.6.3 1.2.2-.3 1.1-.8 2.1-1.2 3.1-.2-.2-.5-.3-1-.2 0-1.4 1-1.8 1-3.1zM-108.6 538.9c1.1-.6 2.5 2.4 1.4 3.1-.9-.4-1.6-2.3-1.4-3.1zM-125 584.3h-6.7c-.5-4.4-1.4-8.4-1.9-12.7h-14.2c-1.1 3.9-1.5 8.4-2.2 12.7h-6.7c4.3-25.3 7.9-51.3 12.7-76.1h6.2c4.5 25.3 8.7 50.7 12.8 76.1zm-21.8-19h12c-2.1-12.5-3.8-25.4-6.2-37.7-1.8 12.8-4.2 24.9-5.8 37.7zM-159.5 508.4v75.8h-6.5v-75.4c0-.3 0-.7.2-.7 2.1.2 4.7-.2 6.3.3zM-172.7 508.4v75.8h-6.5v-48c-2.9 10.3-5.4 21-8.2 31.4-2.8-10.1-5.5-20.5-7.9-31-.6 15.4-.1 31.8-.2 47.5h-6.5c.2-25.3-.3-51.2.2-76.1h6c2.8 11 5.6 22 8.2 33.4 3.1-10.8 5.6-22.3 8.4-33.4 2.1.3 4.8-.1 6.5.4zM-209 556.7c0 12.6 1 23.5-7.9 27.4-8.9 3.8-16.3-3.8-17.3-11.5-.6-4.7 0-10.4 0-16.1V509c0-.3 0-.7.2-.7h6v57.6c0 6.2.7 12.6 6.2 12.7 5.8.1 6.5-6.4 6.5-12.7v-57.6h6.2c.1 15.5.1 32.2.1 48.4zM-241.1 518.8c1.4 6.7.2 20.5.2 28.3v14.2c0 4.4.5 10.2-.5 13.7-1.8 6.1-7.7 12.1-15.8 9.4-4.2-1.4-7.6-5.5-8.6-10.6-.9-4.4-.2-9.6-.2-13.7v-27.6c0-12.1.1-20.1 7.4-23.8 1.4-.7 3.3-.9 5-1 6.5-.2 11.3 5.5 12.5 11.1zm-6 28.5c0-9.6 3.3-35.9-7.9-32.9-6.2 1.7-4.8 12.7-4.8 20.4v16.8c0 9.8-2.3 27.3 6.7 26.9 5.1-.2 6-5.8 6-12.5v-18.7zM-272.8 508.2v76.1h-6.5c-4-16.3-8.3-32.3-12.2-48.7-.6 15.8-.1 32.6-.2 48.7h-6.5v-75.4c0-.3 0-.7.2-.7h6c4.3 16.2 8.5 32.6 12.5 49.2.6-15.9.1-32.9.2-49.2h6.5z"/><g fill="none" stroke="#000" stroke-miterlimit="10"><path d="M-298.1 596.2H48.2M-298.1 599.2H48.2"/></g><g fill="none" stroke="#000" stroke-miterlimit="10"><path d="M-300.3 492.6H46M-300.3 495.6H46"/></g></svg>