<svg xmlns="http://www.w3.org/2000/svg" width="429.12" height="519.84" viewBox="0 0 429.12 519.84"><g fill-rule="evenodd" clip-rule="evenodd"><path d="M386.94 72.15H53.097c-.816-1.184 1.28-.96 2.04-.96h329.76c.788 0 2.465-.425 2.04.96z"/><path fill="#FFF" d="M53.1 72.15h333.84v10.44H53.1V72.15z"/><path d="M53.1 82.59h333.84v.96H53.1v-.96z"/><path fill="#FFF" d="M53.1 83.55h333.84v137.64H53.1V83.55zm144.358 28.68c-1.52 4.12-1.56 9.07-1.56 14.28v47.64c0 5.022-.527 10.714.48 15.36.85 3.915 2.705 7.88 5.28 10.56 2.53 2.635 7.348 4.378 11.76 2.28 6.304-2.996 9.12-11.128 9.12-20.88v-54.72c0-4.99-.048-8.86-1.08-12.6-1.632-5.913-5.604-13.12-13.44-12.24-5.75.647-8.838 5.66-10.56 10.32zm-142.44-9.358v99.72c4.75-.57 10.514.8 15.36-.12 5.703-1.08 9.326-7.397 10.68-12.96.856-3.51.72-7.56.72-12.24v-52.08c0-10.158-2.36-18.035-8.76-21.48-4.075-2.194-12.167-.82-17.88-1.2-.14.02-.13.19-.12.36zm52.8 0v74.16c0 3.886.11 8.457-.84 11.52-.94 3.038-2.5 6.503-5.76 6.6-2.613.078-4.088-1.92-5.04-3.72-2.64-5-1.643-14.955-1.8-22.08h-6.6c.163 6.027-.272 11.66.12 16.68.39 4.955 1.95 9.275 4.32 12.48 2.444 3.304 7.817 6.545 13.32 3.84 5.31-2.61 8.57-9.92 8.88-18.24.32-8.517 0-18.43 0-27.24v-54.36h-6.48c-.14.02-.13.19-.12.36zm26.28 0c-4.283 33.274-8.57 66.55-12.96 99.72h6.96c.766-5.515 1.26-11.302 2.16-16.68h15.24c.64 5.562 1.35 11.05 1.92 16.68h7.08c-4.522-33.317-8.882-66.797-13.44-100.08h-6.72c-.15.05-.245.154-.24.36zm27.36 0v99.72c4.75-.57 10.513.8 15.36-.12 5.702-1.08 9.325-7.397 10.68-12.96.855-3.51.72-7.56.72-12.24v-52.08c0-10.158-2.36-18.035-8.76-21.48-4.075-2.194-12.168-.82-17.88-1.2-.14.02-.13.19-.12.36zm106.08 0v99.72h6.72v-100.08h-6.6c-.138.02-.13.19-.12.36zm14.04 0c4.28 33.277 8.568 66.553 12.96 99.72h6.84c4.558-33.284 8.917-66.763 13.44-100.08h-7.08c-3.23 25.092-6.47 50.17-9.84 75.12-3.23-24.97-6.29-50.11-9.48-75.12h-6.84c-.203.05.026.154 0 .36zm47.76 0c-4.283 33.274-8.57 66.55-12.96 99.72h6.96c.766-5.515 1.258-11.302 2.16-16.68h15.24c.64 5.562 1.35 11.05 1.92 16.68h7.08c-4.523-33.317-8.883-66.797-13.44-100.08h-6.72c-.15.05-.244.154-.24.36zm27.36 0v99.72h6.72c.08-21.8-.16-43.92.12-65.52 4.382 21.858 8.835 43.646 13.2 65.52h6.72v-100.08h-6.72c-.08 21.76.16 43.84-.12 65.4-4.255-21.904-8.853-43.467-13.08-65.4h-6.72c-.138.02-.13.19-.12.36z"/><path d="M208.02 101.912c7.834-.88 11.807 6.326 13.44 12.24 1.03 3.74 1.08 7.61 1.08 12.6v54.72c0 9.75-2.817 17.883-9.122 20.88-4.412 2.097-9.23.354-11.76-2.28-2.575-2.68-4.432-6.646-5.28-10.56-1.007-4.646-.48-10.34-.48-15.36v-15.84-31.8c0-5.21.04-10.162 1.56-14.28 1.722-4.662 4.81-9.675 10.56-10.32zm-1.92 9.36c-3.46 2.993-3.6 8.95-3.6 15.72v38.88c0 6.398-.527 13.034 0 19.44.33 4.017 2.39 9.436 6.12 9.72 4.622.35 6.84-5.255 7.2-9.6.52-6.353 0-13.172 0-19.92v-39.96c0-3.568.1-6.604-.72-9.24-1.04-3.334-3.09-6.808-6.96-6-.67.14-1.53.517-2.04.96zM55.14 102.51c5.71.382 13.803-.993 17.88 1.2 6.4 3.446 8.76 11.323 8.76 21.48v52.08c0 4.68.134 8.73-.72 12.24-1.356 5.564-4.98 11.88-10.68 12.96-4.848.92-10.61-.448-15.36.12v-99.72c-.012-.17-.02-.338.12-.36zm6.6 8.76v82.92c1.96-.122 6.146.67 8.28-.12 2.357-.872 3.82-3.976 4.56-7.08.777-3.26.48-7.387.48-11.16v-46.56c0-7.604.116-16.384-5.28-18.12-2.082-.668-5.52.004-7.8-.24-.152.05-.247.156-.24.36zM107.938 102.51h6.48v54.36c0 8.81.32 18.724 0 27.24-.312 8.32-3.57 15.63-8.88 18.24-5.503 2.706-10.876-.535-13.32-3.84-2.37-3.204-3.933-7.524-4.32-12.48-.393-5.02.042-10.652-.12-16.68h6.6c.156 7.126-.84 17.08 1.8 22.08.95 1.802 2.426 3.8 5.04 3.72 3.26-.096 4.818-3.56 5.76-6.6.95-3.062.84-7.633.84-11.52v-74.16c-.01-.17-.02-.338.12-.36zM134.338 102.51h6.72c4.557 33.284 8.917 66.764 13.44 100.08h-7.08c-.57-5.628-1.282-11.117-1.92-16.68h-15.24c-.902 5.378-1.395 11.166-2.16 16.68h-6.96c4.39-33.17 8.676-66.444 12.96-99.72-.005-.204.09-.31.24-.36zm-3 75.12h12.72c-2.032-16.847-4.243-33.516-6.48-50.16-2.143 16.657-4.165 33.435-6.24 50.16zM161.58 102.51c5.71.382 13.804-.993 17.88 1.2 6.4 3.446 8.76 11.323 8.76 21.48v52.08c0 4.68.134 8.73-.72 12.24-1.356 5.564-4.98 11.88-10.68 12.96-4.85.92-10.612-.448-15.36.12v-99.72c-.012-.17-.02-.338.12-.36zm6.6 8.76v82.92c1.96-.122 6.146.67 8.28-.12 2.357-.872 3.82-3.976 4.56-7.08.777-3.26.48-7.387.48-11.16v-46.56c0-7.604.116-16.384-5.28-18.12-2.082-.668-5.52.004-7.8-.24-.152.05-.247.156-.24.36zM267.658 102.51h6.6v100.08h-6.72v-99.72c-.01-.17-.018-.338.12-.36zM281.578 102.51h6.84c3.19 25.012 6.252 50.152 9.48 75.12 3.37-24.95 6.61-50.027 9.84-75.12h7.08c-4.523 33.318-8.883 66.797-13.44 100.08h-6.84c-4.392-33.166-8.68-66.44-12.96-99.72.026-.204-.203-.31 0-.36zM329.578 102.51h6.72c4.558 33.284 8.917 66.764 13.44 100.08h-7.08c-.57-5.628-1.28-11.117-1.92-16.68h-15.24c-.902 5.378-1.395 11.166-2.16 16.68h-6.96c4.39-33.17 8.677-66.444 12.96-99.72-.004-.204.09-.31.24-.36zm-3 75.12h12.72c-2.032-16.847-4.243-33.516-6.48-50.16-2.144 16.657-4.166 33.435-6.24 50.16zM356.818 102.51h6.72c4.228 21.935 8.825 43.498 13.08 65.4.28-21.56.04-43.64.12-65.4h6.72v100.08h-6.72c-4.365-21.874-8.818-43.66-13.2-65.52-.28 21.6-.04 43.72-.12 65.52h-6.72v-99.72c-.01-.17-.018-.338.12-.36z"/><path fill="#FFF" d="M208.14 110.312c3.87-.807 5.92 2.667 6.96 6 .82 2.637.72 5.672.72 9.24v39.96c0 6.75.52 13.568 0 19.92-.358 4.346-2.578 9.95-7.2 9.6-3.73-.283-5.79-5.702-6.12-9.72-.527-6.405 0-13.04 0-19.44v-38.88c0-6.768.14-12.726 3.6-15.72.51-.443 1.37-.82 2.04-.96zM61.98 110.912c2.28.243 5.718-.43 7.8.24 5.395 1.735 5.28 10.515 5.28 18.12v46.56c0 3.772.297 7.897-.48 11.16-.74 3.103-2.203 6.208-4.56 7.08-2.133.79-6.32-.002-8.28.12v-82.92c-.007-.206.088-.312.24-.36zM168.418 110.912c2.28.243 5.72-.43 7.8.24 5.396 1.735 5.28 10.515 5.28 18.12v46.56c0 3.772.298 7.897-.48 11.16-.74 3.103-2.202 6.208-4.56 7.08-2.132.79-6.32-.002-8.28.12v-82.92c-.005-.206.09-.312.24-.36zM137.58 127.47c2.236 16.645 4.447 33.313 6.48 50.16h-12.72c2.073-16.725 4.095-33.503 6.24-50.16zM332.818 127.47c2.236 16.645 4.447 33.313 6.48 50.16h-12.72c2.074-16.725 4.096-33.503 6.24-50.16z"/><path d="M53.1 221.19h333.84v.96H53.1v-.96z"/><path fill="#FFF" d="M53.1 222.15h333.84v82.68H53.1v-82.68zm75.6 20.762c.14 14.628.216 29.135.6 43.08.82.255 1.842-.182 2.88-.24.908-.052 1.79.163 2.76.24 4.628.37 10.09-.284 14.64.12.27 2.394.096 5.264.12 7.68.008.926-.04 2.24.72 2.76 1.715-.447.922-3.017.84-5.16-.088-2.26.503-4.95-.36-6.48-.497-.463-1.354-.566-2.16-.72-.4-6.766.004-14.035-.24-21.12-.18-5.165.248-10.502 0-15.6-.077-1.562.15-3.357-.84-4.56-1.35.81-.96 2.8-.96 4.32 0 12.317.286 24.94.12 37.08-2.34-.12-4.924.455-6.96-.12-.385-12.037-.24-25.188-.24-37.44 0-1.533.312-3.823-1.44-4.08-.987 1.084-.6 2.77-.6 4.08 0 12.282.853 26.123.24 37.56-2.535-.212-4.738.544-7.08.12-.104-13.52-.38-27.842-.6-41.64-.396-.004-.6-.202-1.08-.12-.143.057-.273.127-.36.24zm66.84.12c-3.322.244-7.3-.092-9.84 0-.172.028-.204.197-.36.24-.052.49.11.768.24 1.08 1.528.947 3.884-.124 5.64-.12.798 1.445.48 3.257.48 4.92 0 9.117.24 17.745.24 26.52 0 3.56-.16 7.052 0 10.32 1.507-.006 1.583-1.614 1.68-2.762.258-3.11 0-6.46 0-9.84 0-9.78-.5-20.034 0-29.04 1.882.317 4.248.15 6.24.36.377-2.28-2.39-1.82-4.32-1.68zm51.358 34.8c0 2.28-.45 6.904.48 7.8.344.33 2.848.617 4.32.72 1.977.14 3.764-.26 4.8-.84 4.036-2.255 3.237-15.823.84-19.08-.362-.492-1.556-.635-1.68-1.68-.144-1.2 1.464-2.16 1.92-3.12.487-1.028.862-2.48.96-3.84.28-3.896.145-9.673-1.2-12-1.85-3.202-6.558-3.257-10.44-2.4-.183 11.637 0 22.49 0 34.44zm26.64-25.92c-.353-4.192-.8-9.567-5.64-9-3.457.405-4.318 5.528-4.68 9.48-.674 7.35-.33 16.17.12 23.4.214 3.444.82 7.836 2.52 9.48 1.46 1.413 4.19 1.928 6.24.84 2.2-1.17 2.613-4.85 2.04-8.64-2.755.765-.843 6.344-3.12 7.32-.797.34-2.195-.01-2.88-.36-4.58-2.345-3.02-15.474-3.12-21.48 2.78-.562 6.68.884 9-.36.127-3.068-.166-6.982-.48-10.68zm-93.48-8.28c-1.37-.81-4.995-.584-6.12.48-1.52 1.436-2.005 5.348-2.16 9-.157 3.744 0 7.273 0 11.16 0 7.954-.76 16.58 1.92 20.52.428.627 1.546 1.727 2.4 2.04 3.646 1.337 5.046-1.42 5.76-4.2.366-1.42 1.43-4.617-.84-5.04-1.462 2.128-.508 6.826-3.24 7.2-3.02.413-3.897-3.194-4.08-6.12-.305-4.918.287-10.02 0-16.32-.255-5.643-.82-11.676.84-15.12.475-.982 1.624-2.156 2.76-2.16 1.67-.005 2.35 1.39 2.76 2.76.398 1.322-.01 3.61 1.8 3.84.885-2.433-.263-7.133-1.8-8.04zm55.08 6.48c-2.16 7.145-4.728 16.336-7.08 21.96.196-7.503-.026-14.605.24-22.32.046-1.287.77-6.55-.96-6.36-1.23.134-.84 3.607-.84 3.96 0 5.02.088 9.952 0 14.4-.143 7.25-.143 13.388-.36 19.2-.07 1.864-.425 6.142 1.92 5.04.58-2.482-.528-5.25 0-8.04.1-.514.52-1.01.722-1.562 3.32-9.04 5.273-18.31 8.64-27 .29 10.01-.12 20.767-.12 30.72 0 2.207-.902 5.462 1.44 5.88.647-1.56.36-3.38.36-5.04-.002-12.562.31-25.786 0-37.8-2.22-.075-3.33 4.87-3.96 6.96zm45-6.6c-.294 6.468 0 13.194 0 19.92 0 6.775.394 13.603.12 20.04-.047 1.13-.414 2.646.36 3.48 3.817-1.02 9.282-.336 14.4-.36.442 3.317-.45 7.97.72 10.56 1.78-.43 1.08-2.89 1.08-4.92 0-2.237.084-4.678-.12-6.48-.454-.706-1.796-.523-2.52-.96.146-7.22-.13-14.206-.238-21.48-.08-5.194.078-10.836-.36-15.96-.07-.83-.25-4.24-1.32-4.2-1.7.064-.407 4.154-.36 4.8.418 5.77.186 12.25.12 18.6-.065 6.306-.103 12.6-.24 18.48-3.356-.155-6.673.368-9.84 0-.202-13.923.25-28.08-.36-41.76-.314-.124-.736-.143-1.2-.12-.15.05-.247.154-.24.36zm-123.72 2.88c-.43.61-2.197 3.97-.72 4.44 1.113.354 1.695-2.073 2.28-2.88.576-.795 1.944-2.43 2.88-2.28 1.208.19 1.51 2.892 1.68 3.84.332 1.87.4 3.313.48 5.04.097 2.077.672 9.066-.6 10.2-.573.51-1.794.517-2.52.84-1.12.498-2.592 1.742-3.24 2.64-2.33 3.23-3.026 11.232-.96 15.48.504 1.037 1.59 2.908 3.24 3.24 2.064.415 4.507-.708 5.28-1.8 1.52-2.15.862-7.31.72-10.32-.37-7.817.37-15.33-.24-22.8-.287-3.507-.894-8.865-4.56-8.28-1.394.222-2.767 1.29-3.72 2.64zm145.56 0c-.43.61-2.196 3.97-.72 4.44 1.113.354 1.695-2.073 2.28-2.88.577-.795 1.944-2.43 2.88-2.28 1.21.192 1.512 2.892 1.682 3.84.33 1.87.398 3.313.48 5.04.097 2.077.67 9.066-.6 10.2-.573.51-1.794.517-2.52.84-1.122.498-2.593 1.742-3.24 2.64-2.33 3.23-3.026 11.232-.962 15.48.506 1.037 1.59 2.908 3.24 3.24 2.064.415 4.508-.708 5.28-1.8 1.522-2.15.862-7.31.72-10.32-.37-7.817.37-15.33-.24-22.8-.285-3.507-.893-8.865-4.56-8.28-1.393.222-2.766 1.29-3.72 2.64zm-95.64-2.28c-.4 1.03-.24 3.314-.24 5.16 0 9.15.083 17.827-.36 26.16-.17 3.21-.04 6.648-2.04 8.64-.84.167-1.335-.54-2.04-.12-.3.573-.642 1.354-.48 2.04 5.124 1.834 5.478-4.472 5.88-8.04 1.15-10.206.36-22.672.72-32.28 2.937.023 5.725.195 8.76.12-.193 10.162.36 18.842.36 28.8 0 2.71-.624 6.7-.6 9.6.003.545.1 2.506 1.198 2.28.896-.184.863-2.878.96-4.44.124-1.98.12-3.873.12-5.4 0-10.753-.73-21.946-.24-32.64-4.46-.112-8.214 1.15-11.76-.24-.148.05-.243.154-.238.36z"/><path d="M129.06 242.67c.48-.082.684.116 1.08.12.22 13.797.497 28.12.6 41.64 2.342.424 4.545-.332 7.08-.12.612-11.437-.24-25.277-.24-37.56 0-1.31-.387-2.997.6-4.08 1.752.257 1.44 2.547 1.44 4.08 0 12.252-.145 25.403.24 37.44 2.036.575 4.62 0 6.96.12.166-12.14-.12-24.762-.12-37.08 0-1.52-.39-3.51.96-4.32.99 1.202.763 2.998.84 4.56.248 5.097-.18 10.435 0 15.6.244 7.085-.16 14.355.24 21.12.806.153 1.663.257 2.16.72.863 1.53.272 4.222.36 6.48.082 2.144.874 4.713-.84 5.16-.76-.52-.712-1.834-.72-2.76-.024-2.416.15-5.286-.12-7.68-4.55-.404-10.012.25-14.64-.12-.97-.077-1.852-.292-2.76-.24-1.038.06-2.06.495-2.88.24-.384-13.945-.46-28.452-.6-43.08.087-.11.217-.18.36-.24zM199.86 244.71c-1.993-.207-4.358-.042-6.24-.36-.5 9.007 0 19.26 0 29.04 0 3.38.258 6.73 0 9.84-.097 1.148-.173 2.757-1.68 2.762-.16-3.268 0-6.758 0-10.32 0-8.774-.24-17.402-.24-26.52 0-1.662.318-3.474-.48-4.92-1.756-.002-4.112 1.068-5.64.12-.13-.312-.293-.588-.24-1.08.157-.042.188-.21.36-.24 2.54-.09 6.518.245 9.84 0 1.93-.143 4.697-.602 4.32 1.68zM246.898 243.392c3.883-.857 8.59-.802 10.44 2.4 1.345 2.327 1.48 8.104 1.2 12-.098 1.36-.473 2.812-.96 3.84-.456.96-2.063 1.92-1.92 3.12.124 1.045 1.317 1.188 1.68 1.68 2.397 3.257 3.196 16.825-.84 19.08-1.036.58-2.823.98-4.8.84-1.473-.103-3.977-.39-4.32-.72-.93-.896-.48-5.52-.48-7.8 0-11.95-.183-22.803 0-34.44zm8.64 18.36c2.202-3.2 1.772-13.772-.84-15.72-1.5-1.032-3.837-1.72-6-.84v17.64c2.894.503 5.448.94 6.84-1.08zm.6 21.72c1.82-1.822 1.57-6.864 1.32-10.2-.43-5.814-2.597-9.746-8.52-7.8-.51 5.77-.116 12.443-.24 18.6 2.67.437 5.802 1.038 7.44-.6zM274.02 262.59c-2.32 1.245-6.22-.2-9 .36.102 6.008-1.46 19.137 3.12 21.48.685.352 2.083.7 2.88.36 2.277-.976.365-6.555 3.12-7.32.573 3.79.16 7.47-2.04 8.64-2.05 1.09-4.78.574-6.24-.84-1.7-1.644-2.307-6.035-2.52-9.48-.45-7.228-.794-16.05-.12-23.4.36-3.95 1.223-9.074 4.68-9.48 4.84-.566 5.287 4.81 5.64 9 .312 3.7.605 7.614.48 10.68zm-2.16-10.08c-.155-2.438-.272-6.28-1.683-7.32-1.186-.872-2.88-.2-3.48.48-2.48 2.816-1.745 10.893-1.8 15.6 2.49-.09 4.744.286 7.08 0-.016-2.885.074-5.714-.118-8.76zM181.86 251.67c-1.81-.23-1.404-2.517-1.8-3.84-.413-1.37-1.093-2.765-2.76-2.76-1.138.005-2.287 1.18-2.76 2.16-1.663 3.445-1.097 9.478-.84 15.12.285 6.3-.307 11.403 0 16.32.18 2.927 1.06 6.534 4.08 6.12 2.73-.373 1.776-5.07 3.24-7.2 2.267.424 1.205 3.62.84 5.04-.716 2.78-2.116 5.538-5.76 4.2-.855-.312-1.974-1.412-2.4-2.04-2.683-3.938-1.92-12.564-1.92-20.52 0-3.886-.16-7.415 0-11.16.153-3.65.64-7.563 2.16-9 1.123-1.062 4.748-1.29 6.12-.48 1.535.91 2.683 5.61 1.8 8.04zM239.1 243.15c.31 12.016-.002 25.24 0 37.8 0 1.66.287 3.482-.36 5.04-2.343-.417-1.44-3.672-1.44-5.88 0-9.952.41-20.71.12-30.72-3.366 8.69-5.32 17.96-8.64 27-.203.552-.623 1.05-.72 1.562-.53 2.79.577 5.56 0 8.04-2.347 1.103-1.99-3.175-1.92-5.04.216-5.812.216-11.948.358-19.2.088-4.447 0-9.38 0-14.4 0-.352-.39-3.825.84-3.96 1.73-.19 1.006 5.074.96 6.36-.267 7.717-.044 14.818-.24 22.32 2.353-5.623 4.92-14.814 7.08-21.96.633-2.093 1.74-7.037 3.962-6.96zM280.38 243.15c.462-.022.884-.003 1.198.12.61 13.68.158 27.837.36 41.76 3.167.368 6.483-.155 9.84 0 .138-5.88.175-12.175.24-18.48.065-6.35.298-12.83-.12-18.6-.047-.646-1.34-4.736.36-4.8 1.07-.04 1.25 3.37 1.32 4.2.438 5.124.28 10.767.36 15.96.11 7.274.385 14.26.238 21.48.725.437 2.066.254 2.52.96.204 1.803.12 4.243.12 6.48 0 2.03.7 4.49-1.08 4.92-1.17-2.59-.277-7.242-.72-10.56-5.118.024-10.583-.66-14.4.36-.774-.834-.407-2.35-.36-3.48.273-6.438-.12-13.265-.12-20.04 0-6.726-.294-13.452 0-19.92-.003-.204.093-.31.243-.36zM160.14 243.75c3.665-.584 4.272 4.774 4.56 8.28.61 7.47-.13 14.984.24 22.8.142 3.01.8 8.17-.72 10.32-.774 1.093-3.217 2.216-5.28 1.8-1.65-.33-2.736-2.202-3.24-3.24-2.067-4.247-1.37-12.25.96-15.48.646-.896 2.12-2.14 3.24-2.64.725-.322 1.946-.328 2.52-.84 1.27-1.133.696-8.122.6-10.2-.08-1.726-.15-3.17-.48-5.04-.17-.947-.473-3.647-1.68-3.84-.937-.147-2.306 1.486-2.88 2.28-.585.808-1.168 3.235-2.28 2.88-1.48-.47.288-3.83.72-4.44.95-1.348 2.324-2.416 3.72-2.64zm-.84 24.362c-2.388 1.767-4.01 8.61-2.76 12.96.345 1.205 1.694 3.516 2.64 3.84 1.15.395 2.88-.076 3.48-.84.974-1.245.72-4.42.72-6.6 0-4.05-.14-7.42-.48-10.56-1.175.095-2.723.548-3.6 1.2zM305.7 243.75c3.665-.584 4.272 4.774 4.558 8.28.61 7.47-.13 14.984.24 22.8.143 3.01.803 8.17-.72 10.32-.772 1.093-3.216 2.216-5.28 1.8-1.65-.33-2.734-2.202-3.24-3.24-2.064-4.247-1.37-12.25.96-15.48.65-.896 2.12-2.14 3.24-2.64.728-.322 1.948-.328 2.52-.84 1.272-1.133.698-8.122.6-10.2-.08-1.726-.147-3.17-.478-5.04-.17-.947-.473-3.647-1.682-3.84-.936-.147-2.303 1.486-2.88 2.28-.585.808-1.167 3.235-2.28 2.88-1.477-.47.29-3.83.72-4.44.954-1.348 2.327-2.416 3.72-2.64zm-.84 24.362c-2.388 1.767-4.01 8.61-2.76 12.96.345 1.205 1.692 3.516 2.638 3.84 1.152.395 2.883-.076 3.48-.84.975-1.245.72-4.42.72-6.6 0-4.05-.14-7.42-.48-10.56-1.173.095-2.722.55-3.6 1.2zM206.58 243.75c3.544 1.39 7.297.128 11.758.24-.49 10.694.24 21.887.24 32.64 0 1.527.004 3.42-.12 5.4-.097 1.563-.063 4.257-.96 4.44-1.098.226-1.195-1.735-1.2-2.28-.022-2.9.6-6.89.6-9.6 0-9.958-.552-18.638-.358-28.8-3.036.075-5.823-.097-8.76-.12-.36 9.608.43 22.074-.72 32.28-.402 3.568-.756 9.874-5.88 8.04-.162-.687.18-1.467.48-2.04.705-.42 1.2.287 2.04.12 2-1.99 1.87-5.43 2.04-8.64.443-8.333.36-17.008.36-26.16 0-1.846-.162-4.13.24-5.16-.007-.204.088-.31.24-.36z"/><path fill="#FFF" d="M248.7 262.832v-17.64c2.16-.88 4.497-.19 6 .84 2.61 1.95 3.04 12.522.84 15.72-1.394 2.02-3.948 1.583-6.84 1.08zM271.98 261.27c-2.337.286-4.59-.09-7.08 0 .054-4.707-.683-12.783 1.8-15.6.6-.68 2.293-1.352 3.48-.48 1.41 1.04 1.526 4.88 1.68 7.32.19 3.046.1 5.875.12 8.76zM248.7 284.072c.122-6.156-.272-12.83.24-18.6 5.92-1.946 8.087 1.985 8.52 7.8.247 3.336.5 8.378-1.32 10.2-1.64 1.638-4.773 1.037-7.44.6zM162.898 266.912c.34 3.14.48 6.51.48 10.56 0 2.182.255 5.355-.72 6.6-.598.765-2.33 1.235-3.48.84-.945-.323-2.294-2.634-2.64-3.84-1.248-4.348.374-11.192 2.76-12.96.88-.652 2.427-1.105 3.6-1.2zM308.46 266.912c.34 3.14.48 6.51.48 10.56 0 2.182.253 5.355-.722 6.6-.598.765-2.328 1.235-3.48.84-.945-.323-2.293-2.634-2.64-3.84-1.247-4.348.374-11.192 2.76-12.96.878-.65 2.427-1.105 3.6-1.2z"/><path d="M53.1 304.832h333.84v.96H53.1v-.96z"/><path fill="#FFF" d="M53.1 305.792h333.84v9.6H53.1v-9.6z"/><path d="M53.1 315.39h333.84v.96H53.1v-.96z"/><path fill="#FFF" d="M53.1 316.35h333.84c-110.997.2-222.847.2-333.84 0z"/></g></svg>