<?xml version="1.0" encoding="utf-8"?>
<!-- Generator: Adobe Illustrator 15.0.1, SVG Export Plug-In . SVG Version: 6.00 Build 0)  -->
<!DOCTYPE svg PUBLIC "-//W3C//DTD SVG 1.1//EN" "http://www.w3.org/Graphics/SVG/1.1/DTD/svg11.dtd">
<svg version="1.1" id="Layer_1" xmlns="http://www.w3.org/2000/svg" xmlns:xlink="http://www.w3.org/1999/xlink" x="0px" y="0px"
	 width="841.89px" height="595.28px" viewBox="0 0 841.89 595.28" enable-background="new 0 0 841.89 595.28" xml:space="preserve">
<g>
	<path fill-rule="evenodd" clip-rule="evenodd" fill="#F8F8F8" d="M391.492,9.578c6.8,0,13.6,0,20.4,0
		c76.52,4.122,132.15,31.587,175.92,69.36c31.048,26.793,56.357,59.83,74.16,100.56c14.303,32.721,23.998,70.255,24,115.92
		c0.002,45.118-10.327,82.816-24.96,114.96c-14.678,32.241-33.762,59.921-56.88,83.04c-46.842,46.843-106.818,80.229-195.12,84.72
		c-4.88,0-9.76,0-14.64,0c-0.053-0.188-0.201-0.279-0.48-0.24c-44.362-1.15-81.333-11.843-113.04-26.64
		c-31.697-14.793-58.502-34.741-81.84-58.08c-22.95-22.952-42.5-50.855-56.88-83.04c-14.443-32.324-24.72-69.951-24.72-115.2
		c0-45.378,9.723-83.118,24-115.68c21.254-48.475,53.497-86.731,93.84-115.92C275.905,33.925,325.778,12.93,391.492,9.578z
		 M235.012,67.178c-26.475,19.26-50.383,44.14-68.4,72c-8.877,13.727-17.25,29.332-24.24,46.08
		c-13.348,31.984-23.544,72.417-21.6,118.56c1.885,44.719,12.788,80.205,27.84,112.561c14.705,31.608,35.496,58.873,59.28,81.359
		c24.117,22.802,51.954,41.364,85.2,55.44c33.075,14.004,72.041,22.712,118.56,21.6c43.281-1.034,81.074-12.85,112.56-27.84
		c31.879-15.177,58.66-35.269,81.359-59.28c22.729-24.042,41.386-51.711,55.44-84.96c13.789-32.617,23.699-72.301,21.6-118.56
		c-1.984-43.745-12.1-81.266-27.6-112.8c-30.589-62.232-78.979-109.068-144.48-136.8c-32.219-13.641-73.642-23.762-119.04-21.6
		C324.418,16.132,275.392,37.802,235.012,67.178z"/>
	<path fill-rule="evenodd" clip-rule="evenodd" fill="#F8F8F8" d="M398.212,25.178c21.048-1.002,43.659,1.897,61.439,5.76
		c54.511,11.843,97.889,37.649,130.801,70.56c22.822,22.822,41.502,47.489,55.92,78.24c14.312,30.526,24.019,66.618,25.199,108.96
		c1.221,43.747-8.789,81.941-22.319,112.08c-13.99,31.164-31.419,57.578-54,80.16c-22.187,22.187-47.265,41.575-78.24,55.92
		c-30.169,13.971-67.26,25.199-108.96,25.2c-66.517,0.001-114.967-19.3-155.52-46.08c-13.352-8.817-25.916-18.955-36.96-30
		c-22.219-22.22-41.409-47.565-55.68-78.479c-14.152-30.655-24.594-65.939-25.44-108.72c-1.313-66.419,19.949-116.335,46.08-155.52
		c26.44-39.648,62.742-71.549,108.24-92.88c29.837-13.988,66.198-25.2,108.96-25.2C397.891,25.178,398.053,25.185,398.212,25.178z
		 M397.732,28.298c-42.366,0-77.945,11.158-107.52,24.96c-30.428,14.2-55.765,33.003-77.52,55.2
		c-22.402,22.855-39.582,47.8-53.28,79.44c-12.963,29.942-22.699,67.408-21.84,110.88c0.835,42.264,11.089,77.242,24.96,107.52
		c13.915,30.375,33.397,55.716,55.2,77.52c22.134,22.136,48.818,39.854,79.44,53.28c31.062,13.619,67.477,21.843,110.88,21.84
		c41.212-0.002,77.782-11.082,107.521-24.96c30.759-14.354,55.453-33.134,77.52-55.2c22.246-22.246,39.883-48.348,53.28-79.439
		c13.25-30.751,23.296-66.94,22.08-110.64c-1.167-41.904-10.92-77.34-24.96-107.52c-14.275-30.684-32.557-54.877-55.2-77.52
		c-21.855-21.854-48.097-39.926-79.2-53.52c-29.137-12.734-68.778-23.845-110.88-21.84
		C398.053,28.305,397.891,28.298,397.732,28.298z"/>
	<path fill-rule="evenodd" clip-rule="evenodd" fill="#F8F8F8" d="M297.652,205.897c12.74-1.019,7.028,21.296-4.8,17.52
		c-1.75-0.559-3.18-2.395-3.6-3.36C286.453,213.633,291.456,206.394,297.652,205.897z"/>
	<path fill-rule="evenodd" clip-rule="evenodd" fill="#F8F8F8" d="M317.812,205.897c2.5-0.254,4.515,0.508,5.52,1.44
		c5.395,5.005-0.251,14.283-4.56,15.84c-5.242,1.894-9.646-1.677-9.84-6.24C308.682,211.053,312.384,206.45,317.812,205.897z"/>
	<path fill-rule="evenodd" clip-rule="evenodd" fill="#F8F8F8" d="M276.052,322.058c5.44,0,10.88,0,16.32,0c0,3.68,0,7.36,0,11.04
		c-3.68,0-7.36,0-11.04,0c-0.72,19.601,0.24,40.88-0.48,60.48c-3.6,0-7.2,0-10.8,0c0-20.081,0-40.16,0-60.24
		c-3.281-0.56-7.6-0.081-11.28-0.24c-0.551-3.209-0.086-7.434-0.24-11.04c5.44-0.16,11.52,0.319,16.56-0.24"/>
	<path fill-rule="evenodd" clip-rule="evenodd" fill="#F8F8F8" d="M255.652,337.657c-3.403,0.757-6.987,1.334-10.56,1.921
		c-0.254-4.248-2.056-9.565-7.92-8.4c-4.039,0.803-4.896,6.493-4.08,10.32c1.299,6.091,7.184,10.173,12.48,15.119
		c5.042,4.71,10.596,10.812,10.8,19.2c0.268,11.016-6.857,19.675-19.68,18.48c-10.333-0.963-14.973-8.249-16.08-20.4
		c3.485-0.194,6.862-0.497,10.32-0.72c0.764,4.575,1.986,10.754,7.2,11.04c6.32,0.347,8.082-6.61,6.48-11.521
		c-1.846-5.657-8.228-9.872-13.2-14.399c-4.768-4.342-9.274-10.177-9.84-17.521c-0.79-10.257,4.097-18.73,14.88-19.68
		C248.739,320.017,254.218,326.799,255.652,337.657z"/>
	<path fill-rule="evenodd" clip-rule="evenodd" fill="#F8F8F8" d="M303.892,322.058c4.88,0,9.76,0,14.64,0
		c4.162,23.678,8.077,47.604,12,71.521c-3.84,0-7.68,0-11.52,0c-0.736-5.504-1.694-10.786-2.4-16.32c-3.6,0-7.2,0-10.8,0
		c-1.396,5.004-1.891,10.908-2.88,16.32c-3.76,0-7.52,0-11.28,0C295.353,370.318,299.421,345.347,303.892,322.058z M307.252,366.458
		c2.56,0,5.12,0,7.68,0c-1.512-8.648-2.146-18.175-4.08-26.4C309.855,349.062,308.358,357.564,307.252,366.458z"/>
	<path fill-rule="evenodd" clip-rule="evenodd" fill="#F8F8F8" d="M336.292,322.058c7.756,0.965,15.102-1.494,21.84,0.48
		c5.354,1.568,11.275,7.442,12,15.119c0.494,5.236,0,12.708,0,20.16c0,9.195,0.944,19.532-1.44,25.2
		c-4.877,11.594-15.84,11.003-32.4,10.561c-0.56-23.121-0.08-47.28-0.24-70.801C336.031,322.438,336.012,322.098,336.292,322.058z
		 M347.092,333.817c0,16.24,0,32.48,0,48.721c2.564-0.281,6.904,0.563,9.12-0.48c3.73-1.757,3.12-7.271,3.12-13.2
		c0-3.63,0-7.166,0-11.04c0-5.808,1.315-17.182-0.48-21.359c-1.575-3.667-6.745-3.615-11.52-3.36
		C347.052,333.138,347.071,333.478,347.092,333.817z"/>
	<path fill-rule="evenodd" clip-rule="evenodd" fill="#F8F8F8" d="M375.892,322.058c11.2,0,22.4,0,33.6,0c0,3.6,0,7.2,0,10.8
		c-3.368,0.552-7.754,0.086-11.52,0.24c0,20.16,0,40.32,0,60.48c-3.6,0-7.2,0-10.8,0c-0.56-19.681-0.081-40.4-0.24-60.48
		c-3.76,0-7.52,0-11.28,0C375.811,329.497,375.333,325.259,375.892,322.058z"/>
	<path fill-rule="evenodd" clip-rule="evenodd" fill="#F8F8F8" d="M416.452,322.058c14.002,0.089,25.876-2.021,31.44,7.44
		c3.787,6.438,3.683,21.005,0.48,27.6c-3.319,6.834-9.758,10.462-20.88,9.6c-0.561,8.48-0.08,18-0.24,26.881c-3.601,0-7.2,0-10.8,0
		c-0.56-23.121-0.08-47.28-0.24-70.801C416.191,322.438,416.172,322.098,416.452,322.058z M427.252,355.657
		c3.851-0.443,5.423,0.727,8.399-0.239c4.198-1.362,3.841-6.651,3.841-12.96c0-9.078-3.125-9.992-12-9.36
		C426.932,340.138,427.412,348.218,427.252,355.657z"/>
	<path fill-rule="evenodd" clip-rule="evenodd" fill="#F8F8F8" d="M457.252,322.058c3.6,0,7.2,0,10.8,0c0,20.16,0,40.32,0,60.48
		c6.16,0,12.32,0,18.479,0c-0.153,3.606,0.312,7.831-0.239,11.04c-9.76,0-19.521,0-29.28,0c0-23.601,0-47.2,0-70.801
		C456.991,322.438,456.972,322.098,457.252,322.058z"/>
	<path fill-rule="evenodd" clip-rule="evenodd" fill="#F8F8F8" d="M517.492,322.058c3.862,23.737,8.412,48.067,11.76,71.521
		c-3.76,0-7.521,0-11.28,0c-0.794-5.446-1.82-10.66-2.399-16.32c-3.681,0-7.36,0-11.041,0c-1.123,5.276-1.655,11.145-2.88,16.32
		c-3.68,0-7.359,0-11.04,0c3.612-23.349,7.676-48.325,12.24-71.521C507.731,322.058,512.611,322.058,517.492,322.058z
		 M506.212,366.458c2.48-0.159,5.599,0.318,7.68-0.24c-1.657-8.582-2.328-18.151-4.08-26.64
		C508.818,348.744,507.232,357.318,506.212,366.458z"/>
	<path fill-rule="evenodd" clip-rule="evenodd" fill="#F8F8F8" d="M535.252,322.058c4.08,0,8.16,0,12.24,0
		c4.419,15.74,9.298,31.021,13.68,46.8c0.56-15.12,0.08-31.279,0.24-46.8c3.68,0,7.359,0,11.04,0c0,23.76,0,47.52,0,71.28
		c-3.448,0.552-7.915,0.086-11.761,0.24c-4.81-14.951-9.746-29.774-14.399-44.881c-0.561,14.48-0.08,30-0.24,44.881
		c-3.6,0-7.2,0-10.8,0c-0.56-23.121-0.08-47.28-0.24-70.801C534.991,322.438,534.972,322.098,535.252,322.058z"/>
	<path fill-rule="evenodd" clip-rule="evenodd" fill="#F8F8F8" d="M583.972,240.938c5.498-5.39,9.263-13.574,20.4-13.44
		c5.055,0.061,8.94,3.193,10.08,7.92c2.488,10.325-2.641,23.258-5.761,33.12c-1.564,4.947-3.075,9.938-4.319,15.6
		c-1.057,4.808-2.732,14.895,1.92,15.36c4.941,0.494,9.899-10.218,11.52-13.44c3.061-6.086,4.858-11.705,7.44-17.52
		c1.987,0.493,3.918,1.042,5.04,2.4c-2.535,7.644-5.608,14.979-9.12,22.08c-3.278,6.629-7.123,13.725-13.44,17.521
		c-3.647,2.191-10.177,2.914-14.16,0.479c-11.789-7.206-4.479-30.9-0.72-42.72c1.305-4.102,3.138-8.981,4.32-13.44
		c1.124-4.241,2.938-13.29-0.24-14.16c-2.818-0.772-6.271,2.722-7.68,4.56c-5.408,7.058-8.314,17.244-10.561,26.16
		c-3.228,12.814-5.282,27.328-8.16,40.56c-5.203-0.156-11.035,0.315-15.84-0.24c0.532-4.748,1.324-9.236,2.16-13.68
		c-5.099,7.442-13.095,16.668-25.92,15.6c-13.094-1.09-18.421-12.551-19.68-26.399c-2.841,5.118-5.059,10.649-8.641,15.6
		c-3.507,4.848-12.686,13.846-21.84,8.4c-11.656-6.935-4.896-30.826-0.96-42.72c1.381-4.171,2.863-8.403,4.32-13.92
		c0.699-2.648,3.812-12.944-0.24-13.92c-5.865-1.413-10.206,8.652-11.76,12.24c-7.435,17.172-9.815,37.298-12.96,58.8
		c-4.96,0-9.92,0-14.88,0c-0.093-6.332-0.04-12.52,1.2-17.52c-6.932,7.782-13.822,20.88-29.28,19.439
		c-13.008-1.212-16.906-14.029-18-27.839c-2.395,4.846-5.17,10.444-8.88,15.839c-3.006,4.372-7.604,10.401-13.44,11.04
		c-9.255,1.015-10.433-9.247-10.32-18.959c-3.399,8.85-12.329,24.504-24.72,18.959c-6.894-3.085-8.117-11.918-8.4-22.08
		c-3.667,5.578-8.661,17.936-16.32,21.36c-10.172,4.547-14.079-7.906-12.96-18.24c-4.336,8.493-8.027,18.891-19.2,19.919
		c-11.473,1.057-13.954-10.476-14.16-22.08c-4.864,7.07-9.121,19.596-20.16,21.12c-9.525,1.315-14.217-5.594-14.88-13.199
		c-1.698-19.472,9.169-33.979,11.28-51.36c0.395-3.253,0.509-6.452-1.2-7.2c-2.875-1.259-6.207,2.418-7.68,4.32
		c-12.962,16.734-13.056,43.83-19.68,66.72c-5.44,0-10.88,0-16.32,0c3.684-20.394,8.994-39.394,12-61.44
		c0.401-2.944,1.046-7.686-0.96-8.4c-3.147-1.121-6.081,3.185-7.2,4.8c-11.271,16.257-11.94,43.373-17.52,65.04
		c-5.2,0-10.4,0-15.6,0c0.066-10.349,3.884-20.35,6.48-29.76c1.158-4.198,1.403-8.866,2.16-13.2
		c2.237-12.804,4.531-25.848,6.72-39.36c5.2,0,10.4,0,15.6,0c-0.637,4.243-1.387,8.373-2.16,12.48
		c3.256-4.052,7.407-10.922,13.44-13.44c9.99-4.169,17.594,3.143,15.6,14.88c5.182-6.331,10.896-16.135,22.08-16.08
		c5.709,0.028,9.898,3.926,10.56,9.84c1.309,11.704-3.214,22.542-6.24,32.16c-1.351,4.294-3.188,9.347-4.32,14.88
		c-0.878,4.296-2.478,14.516,1.92,15.121c5.347,0.734,10.269-10.688,12.72-16.081c1.609-3.539,3.01-6.805,4.32-10.08
		c1.382-3.454,2.2-6.959,3.36-10.8c3.727-12.339,10.929-30.582,22.8-34.32c8.561-2.696,14.375,3.223,15.6,10.32
		c0.85-2.75,1.204-5.996,1.92-8.88c4.32,0,8.64,0,12.96,0c-3.712,16.637-7.093,34.019-9.84,52.08
		c-0.872,5.729-2.993,11.974-0.96,17.76c3.127-0.631,4.928-3.984,6.72-6.72c4.938-7.54,10.037-17.28,12.72-27.36
		c3.7-13.899,9.573-28.2,18.72-34.8c2.861-2.064,9.339-4.172,13.92-1.92c3.599,1.769,5.254,5.48,6.24,10.32
		c4.46-22.819,8.211-46.349,12.72-69.12c4.72,0,9.44,0,14.16,0c-1.566,22.044-5.582,42.145-10.08,62.16
		c-3.303,14.699-6.662,29.142-8.64,45.84c-0.599,5.056-2.169,10.846,0.24,15.84c5.399-0.956,7.381-6.866,9.6-11.28
		c2.225-4.426,5.085-9.424,6.48-14.4c1.333-4.757,1.885-9.378,3.6-13.92c4.25-11.255,13.247-28.067,29.52-26.4
		c17.939,1.837,13.313,31.402,6.721,43.2c-4.038-1.962-7.94-4.059-11.76-6.24c1.906-3.53,3.816-7.123,5.039-12
		c0.787-3.134,2.198-12.075-1.439-13.44c-2.073-0.778-5.057,0.962-6.48,2.16c-5.918,4.979-8.99,14.302-10.8,24.24
		c-2.52,13.837-2.282,34.222,13.2,32.4c6.501-0.765,11.621-6.651,15.12-11.52c3.688-5.133,7.532-11.481,9.12-17.28
		c1.196-4.372,1.538-9.671,2.399-14.64c4.12-23.768,8.073-47.44,15.36-68.88c2.722-8.008,6.67-16.734,15.84-17.76
		c8.752-0.979,14.245,3.267,14.4,11.28c0.11,5.722-2.113,11.251-4.08,16.08c-4.9,12.031-11.147,21.966-18.48,31.68
		c-1.421,1.883-3.705,3.936-4.319,5.52c-1.096,2.826-0.439,6.083-1.681,8.64c5.543-5.585,10.247-14.372,21.601-13.68
		c6.384,0.389,9.779,5.533,9.84,12.72c0.096,11.291-3.768,20.545-6.72,30c-1.333,4.268-3.026,9.103-4.08,14.16
		c-0.836,4.01-2.361,13.9,1.439,14.88c3.358,0.865,6.842-3.844,8.641-6.72c4.281-6.849,6.634-13.166,9.6-20.64
		c1.479-3.728,2.228-7.925,3.36-11.76c2.304-7.804,5.13-14.602,9.84-20.64c4.708-6.036,11.835-12.796,22.319-11.76
		c7.707,0.761,12.462,7.24,11.761,17.04c-0.645,8.994-5.664,15.933-10.8,20.88c-5.601,5.394-12.647,9.106-21.12,10.56
		c-0.02,9.525,0.745,18.339,6.96,21.12c3.089,1.382,7.698,0.63,10.319-0.48c4.923-2.084,9.13-6.868,12.24-11.76
		c3.027-4.76,6.001-10.269,7.68-16.32c3.299-11.885,3.96-26.84,6.48-39.12c5.28,0,10.56,0,15.84,0
		C585.277,233.443,584.753,237.319,583.972,240.938z M486.292,180.458c-5.371,9.589-7.372,23.829-9.84,35.52
		c3.881-8.141,8.349-16.318,11.04-25.68c0.898-3.126,2.47-6.79,0.72-10.32C487.396,179.961,486.537,179.903,486.292,180.458z
		 M544.852,249.578c0.771-2.157,2.338-8.407,0-10.08c-1.735-1.243-4.937,0.365-6,1.2c-6.614,5.197-10.646,19.107-11.76,28.32
		C534.791,264.503,541.522,258.905,544.852,249.578z M293.092,251.978c-3.023,7.303-5.594,16.497-6.96,25.2
		c-0.801,5.1-2.89,20.026,2.16,20.88c3.716,0.628,6.936-4.706,8.64-7.68c2.285-3.986,3.489-7.137,5.04-11.52
		c3.03-8.564,5.624-16.757,5.28-27.6c-0.151-4.748-1.462-11.317-6.48-10.08C297.323,242.028,294.719,248.047,293.092,251.978z
		 M355.012,253.658c-3.511,9.115-5.895,18.562-6.96,29.52c-0.595,6.124-0.611,14.328,2.88,14.88c3.721,0.588,6.939-5.095,8.64-8.16
		c2.262-4.075,3.305-6.647,5.04-11.76c2.976-8.771,5.865-17.218,5.04-28.56c-0.309-4.242-1.962-9.536-6.48-8.4
		C359.128,242.194,356.647,249.413,355.012,253.658z M272.932,268.778 M335.332,268.778"/>
</g>
</svg>
