<?xml version="1.0" encoding="utf-8"?>
<!-- Generator: Adobe Illustrator 15.0.1, SVG Export Plug-In . SVG Version: 6.00 Build 0)  -->
<!DOCTYPE svg PUBLIC "-//W3C//DTD SVG 1.1//EN" "http://www.w3.org/Graphics/SVG/1.1/DTD/svg11.dtd">
<svg version="1.1" id="Layer_1" xmlns="http://www.w3.org/2000/svg" xmlns:xlink="http://www.w3.org/1999/xlink" x="0px" y="0px"
	 width="841.89px" height="595.28px" viewBox="0 0 841.89 595.28" enable-background="new 0 0 841.89 595.28" xml:space="preserve">
<g>
	<path fill-rule="evenodd" clip-rule="evenodd" fill="#F8F8F8" d="M178.532,134.7c-5.105,2.308-14.856-0.032-18.7,3.538
		c-2.353,49.202-0.342,102.763-1.011,153.647c19.807,0,47.505,0,69.747,0c11.688,0,25.395,2.201,28.304-6.064
		c2.965-8.424-2.304-17.944-8.087-19.207c-8.325-1.817-11.575,5.72-19.207,5.054c-9.729-0.849-12.515-14.629-6.065-21.733
		c4.543-5.002,14.3-6.546,21.228-4.043c13.881,5.014,18.056,26.307,14.657,48.014c-39.929,0.842-83.394,0.843-123.323,0
		c5.33-2.757,16.168-0.004,19.711-4.548c0.842-48.86,0.843-101.251,0-150.11c-3.155-4.763-13.159-2.677-19.711-4.043
		c-0.082-0.587,0.112-0.898,0.506-1.011C150.397,134.53,165.559,133.521,178.532,134.7z"/>
	<path fill-rule="evenodd" clip-rule="evenodd" fill="#F8F8F8" d="M540.918,184.736c0.33,34.713-0.665,70.75,0.505,104.623
		c3.803,3.948,12.871,2.629,19.206,4.043c-11.457,1.988-29.162,1.023-41.949,0.505c5.31-2.439,15.152-0.346,19.206-4.043
		c0.84-32.351,0.844-68.229,0-100.578c-5.188-5.092-11.804-2.248-16.174-3.538c-13.035-3.849-12.697-25.833-3.538-36.39
		c5.239-6.038,25.954-14.567,28.304-2.527c1.238,6.347-2.882,9.581-6.065,10.108c-4.944,0.821-8.855-4.94-15.668-4.548
		c-7.727,0.443-12.422,10.09-11.118,20.217C515.082,183.919,525.593,186.006,540.918,184.736z"/>
	<path fill-rule="evenodd" clip-rule="evenodd" fill="#F8F8F8" d="M374.635,238.311c-35.805-3-82.166,9.223-91.481-16.174
		c-1.842-5.019-1.235-13.197,1.011-17.689c3.421-6.846,22.102-12.997,24.765-1.011c2.149,9.672-7.582,10.336-7.582,20.217
		c0,21.764,46.004,9.357,67.221,12.636c5.739-6.206,1.746-14.759-0.505-20.722c-6.432-17.037-22.563-30.578-45.488-29.314
		c-10.869,0.598-16.843,4.885-26.282,7.58c-0.478-1.319,2.086-2.731,3.539-3.537C334.37,171.096,378.767,197.104,374.635,238.311z"
		/>
	<path fill-rule="evenodd" clip-rule="evenodd" fill="#F8F8F8" d="M410.014,224.159c3.254-3.524,4.327-8.221,6.571-12.13
		c6.3-10.978,17.635-23.021,31.842-26.787c13.156-3.489,29.288,0.536,35.885,6.064c17.401,14.586,6.106,73.04,9.097,100.578
		c0.514,4.723,2.936,11.856,6.571,12.636c5.842,1.252,19.077-12.027,25.271-0.505c6.667,12.402-8.911,21.486-21.228,18.194
		c-14.732-3.937-13.646-27.505-13.646-49.531c0-22.502,1.758-46.02,0-63.178c-1.68-16.401-17.235-24.87-36.391-22.743
		c-24.229,2.69-42.614,29.501-44.477,55.091c-1.168,16.054,0.446,30.984,0.506,47.004c3.371,5.222,14.214,2.971,21.228,4.549
		c-12.336,1.99-30.813,1.022-44.478,0.505c5.518-2.569,16.164-0.01,19.711-4.548c0.844-32.355,0.839-68.224,0-100.579
		c-2.526-2.865-8.718-2.064-13.14-3.032c2.941-0.828,11.814-2.146,14.151-1.517c3.356,0.904,2.022,4.248,2.022,8.592
		C409.509,201.321,409.142,218.831,410.014,224.159z"/>
	<path fill-rule="evenodd" clip-rule="evenodd" fill="#F8F8F8" d="M277.088,217.588c0.588-0.082,0.9,0.111,1.011,0.505
		c1.694,5.518-1.13,9.644-1.516,14.657c-2.541,32.981,15.504,59.995,47.51,60.145c17.221,0.082,30.021-6.085,38.917-15.162
		c2.819-2.876,5.135-6.452,8.592-9.099c-4.605,16.631-28.807,27.569-50.037,26.282C284.833,292.691,265.496,256.251,277.088,217.588
		z"/>
</g>
</svg>
