<?xml version="1.0" encoding="utf-8"?>
<!-- Generator: Adobe Illustrator 15.0.1, SVG Export Plug-In . SVG Version: 6.00 Build 0)  -->
<!DOCTYPE svg PUBLIC "-//W3C//DTD SVG 1.1//EN" "http://www.w3.org/Graphics/SVG/1.1/DTD/svg11.dtd">
<svg version="1.1" id="Layer_1" xmlns="http://www.w3.org/2000/svg" xmlns:xlink="http://www.w3.org/1999/xlink" x="0px" y="0px"
	 width="595.28px" height="841.89px" viewBox="0 0 595.28 841.89" enable-background="new 0 0 595.28 841.89" xml:space="preserve">
<g>
	<polygon fill="none" stroke="#040304" stroke-miterlimit="10" points="109.129,249.217 130.12,249.445 151.112,249.671 
		140.092,298.292 129.066,346.91 119.095,298.062 	"/>
	<polygon fill="none" stroke="#040304" stroke-miterlimit="10" points="83.51,239.994 108.738,249.566 128.678,347.261 	"/>
	<g>
		<defs>
			<rect id="SVGID_1_" x="2.598" y="56.022" width="595.28" height="841.89"/>
		</defs>
		<clipPath id="SVGID_2_">
			<use xlink:href="#SVGID_1_"  overflow="visible"/>
		</clipPath>
		<path clip-path="url(#SVGID_2_)" fill="none" stroke="#040304" stroke-miterlimit="10" d="M128.916,347.403l49.683-107.16
			l-27.778,9.57l-21.929,97.593C128.897,347.406,128.909,347.403,128.916,347.403z"/>
		
			<line clip-path="url(#SVGID_2_)" fill="none" stroke="#040304" stroke-miterlimit="10" x1="151.579" y1="284.521" x2="149.862" y2="288.601"/>
		
			<line clip-path="url(#SVGID_2_)" fill="none" stroke="#040304" stroke-miterlimit="10" x1="109.088" y1="284.521" x2="110.913" y2="288.601"/>
		<polygon clip-path="url(#SVGID_2_)" fill="#040304" points="118.227,249.63 129.729,249.598 141.233,249.566 135.575,283.277 
			129.915,316.986 124.068,283.311 		"/>
	</g>
</g>
</svg>
