<?xml version="1.0" encoding="utf-8"?>
<!-- Generator: Adobe Illustrator 15.0.1, SVG Export Plug-In . SVG Version: 6.00 Build 0)  -->
<!DOCTYPE svg PUBLIC "-//W3C//DTD SVG 1.1//EN" "http://www.w3.org/Graphics/SVG/1.1/DTD/svg11.dtd">
<svg version="1.1" id="Layer_1" xmlns="http://www.w3.org/2000/svg" xmlns:xlink="http://www.w3.org/1999/xlink" x="0px" y="0px"
	 width="595.279px" height="841.891px" viewBox="0 0 595.279 841.891" enable-background="new 0 0 595.279 841.891"
	 xml:space="preserve">
<g>
	<g id="XMLID_2_">
		<path d="M445.24,228.34c0,25.28,0,50.561,0,75.841c-2.16,0-4.319,0-6.479,0c0-16,0-32,0-48c-2.87,10.329-5.359,21.04-8.16,31.439
			c-2.79-10.17-5.42-20.5-7.92-30.96c-0.561,15.36-0.08,31.76-0.239,47.521c-2.16,0-4.319,0-6.479,0
			c0.16-25.28-0.32-51.2,0.239-76.08c2.08,0,4.16,0,6.24,0c2.449,11.229,5.489,21.87,7.92,33.12
			c3.229-10.61,5.58-22.101,8.399-33.12C440.86,228.24,443.539,227.8,445.24,228.34z"/>
		<path d="M411.16,297.94c0,2.08,0,4.16,0,6.24c-7.2,0-14.4,0-21.602,0c0-25.12,0-50.24,0-75.36c-0.02-0.34-0.04-0.68,0.24-0.72
			c2.021,0.14,4.61-0.29,6.24,0.239c0,23.12,0,46.24,0,69.36C400.6,298.26,406.2,297.78,411.16,297.94z"/>
		<path d="M382.6,228.1c0,25.359,0,50.72,0,76.08c-2.159,0-4.319,0-6.479,0c0-25.12,0-50.24,0-75.36
			c-0.021-0.34-0.04-0.68,0.239-0.72C378.44,228.1,380.52,228.1,382.6,228.1z"/>
		<path d="M371.08,228.1c0,2.16,0,4.319,0,6.479c-4.96,0-9.92,0-14.88,0c-0.562,8.88-0.08,18.8-0.24,28.08
			c3.68,0.561,8.399,0.08,12.479,0.24c0.54,1.7,0.101,4.38,0.239,6.479c-4.239,0-8.479,0-12.72,0c0,11.601,0,23.2,0,34.801
			c-2.16,0-4.32,0-6.479,0c0.159-25.28-0.319-51.2,0.239-76.08C356.84,228.1,363.96,228.1,371.08,228.1z"/>
		<path d="M331.24,230.74c3.841-1.35,7.381-2.479,10.561-3.36c-11.84,25.681-23.99,51.051-35.521,77.041
			C295.72,278.5,284.87,252.87,273.88,227.38c4.87,0.181,13.31,5.851,18.72,6.721c4.29,0.689,9.48,0.02,14.16,0.239
			c4.79,0.23,9.88,0.591,14.16,0C324.34,233.87,327.99,231.88,331.24,230.74z M339.64,229.3c-6.148,1.771-11.85,3.99-17.76,6
			c-4.391,20.49-8.979,40.78-13.68,60.961c-0.012,0.25,0.109,0.609,0.238,0.239C318.89,274.15,329.22,251.68,339.64,229.3z
			 M320.68,235.54c-2.17,0.17-3.59-0.41-5.76-0.24c-2.79,15.211-5.029,30.971-7.92,46.08c-2.63-15.369-5.42-30.58-7.92-46.08
			c-2.271,0.19-3.801-0.359-6-0.239c4.391,21.45,8.641,43.04,13.198,64.32C311.06,278.08,316,256.94,320.68,235.54z M304.12,296.02
			c-3.391-19.13-8.261-41.061-12.24-60.96c-5.23-2.05-10.51-4.05-15.84-6C285.31,251.47,294.86,273.6,304.12,296.02z"/>
		<path d="M321.4,258.58c0.681-0.2,0.619,0.34,1.199,0.24c-0.319,1.12-0.819,2.06-1.199,3.12c-0.21-0.19-0.54-0.26-0.96-0.24
			C320.42,260.32,321.36,259.9,321.4,258.58z"/>
		<path d="M292.36,258.82c1.061-0.6,2.5,2.36,1.44,3.12C292.88,261.5,292.18,259.57,292.36,258.82z"/>
		<path d="M276.04,304.18c-2.24,0-4.48,0-6.721,0c-0.529-4.351-1.35-8.41-1.92-12.721c-4.72,0-9.439,0-14.16,0
			c-1.079,3.88-1.5,8.421-2.159,12.721c-2.24,0-4.48,0-6.721,0c4.261-25.341,7.86-51.341,12.721-76.08c2.08,0,4.159,0,6.239,0
			C267.66,253.36,271.86,278.75,276.04,304.18z M254.2,285.22c4,0,8,0,12,0c-2.15-12.49-3.841-25.44-6.24-37.681
			C258.19,260.25,255.83,272.37,254.2,285.22z"/>
		<path d="M241.48,228.34c0,25.28,0,50.561,0,75.841c-2.16,0-4.319,0-6.479,0c0-25.12,0-50.24,0-75.36
			c-0.021-0.34-0.04-0.68,0.24-0.72C237.26,228.24,239.85,227.81,241.48,228.34z"/>
		<path d="M228.28,228.34c0,25.28,0,50.561,0,75.841c-2.159,0-4.319,0-6.479,0c0-16,0-32,0-48c-2.91,10.29-5.39,21.01-8.16,31.439
			c-2.84-10.12-5.47-20.45-7.92-30.96c-0.56,15.36-0.08,31.76-0.24,47.521c-2.16,0-4.319,0-6.479,0c0.16-25.28-0.32-51.2,0.24-76.08
			c2,0,4,0,6,0c2.829,11.01,5.649,22.029,8.159,33.359c3.12-10.8,5.551-22.29,8.4-33.359C223.9,228.24,226.58,227.8,228.28,228.34z"
			/>
		<path d="M192.04,276.58c0,12.58,0.989,23.54-7.92,27.36c-8.86,3.79-16.301-3.81-17.28-11.521c-0.601-4.689,0-10.38,0-16.08
			c0-14.85,0-33.55,0-47.52c-0.021-0.34-0.04-0.68,0.24-0.72c2,0,4,0,6,0c0,18.76,0,38.12,0,57.6c0,6.23,0.71,12.58,6.239,12.721
			c5.82,0.14,6.48-6.44,6.48-12.721c0-19.08,0-38.77,0-57.6c2.08,0,4.16,0,6.24,0C192.04,243.69,192.04,260.39,192.04,276.58z"/>
		<path d="M159.88,238.66c1.38,6.66,0.24,20.55,0.24,28.32c0,4.62,0,8.649,0,14.16c0,4.42,0.51,10.239-0.48,13.68
			c-1.77,6.13-7.66,12.101-15.84,9.36c-4.25-1.42-7.59-5.49-8.64-10.561c-0.91-4.41-0.24-9.6-0.24-13.68c0-8.48,0-18.65,0-27.601
			c0-12.069,0.06-20.13,7.439-23.76c1.44-0.71,3.29-0.91,5.04-0.96C153.88,227.42,158.72,233.07,159.88,238.66z M153.88,267.22
			c0-9.591,3.32-35.95-7.92-32.881c-6.16,1.681-4.8,12.721-4.8,20.4c0,4.67,0,10.93,0,16.8c0,9.84-2.29,27.29,6.72,26.881
			c5.08-0.23,6-5.841,6-12.48C153.88,279.75,153.88,273.91,153.88,267.22z"/>
		<path d="M128.2,228.1c0,25.359,0,50.72,0,76.08c-2.16,0-4.32,0-6.48,0c-3.99-16.33-8.34-32.301-12.24-48.721
			c-0.56,15.761-0.08,32.561-0.239,48.721c-2.16,0-4.32,0-6.48,0c0-25.12,0-50.24,0-75.36c-0.02-0.34-0.04-0.68,0.24-0.72
			c2,0,4,0,6,0c4.31,16.25,8.529,32.59,12.479,49.199c0.561-15.92,0.08-32.88,0.24-49.199C123.88,228.1,126.04,228.1,128.2,228.1z"
			/>
	</g>
	<g>
		<line fill="none" stroke="#000000" stroke-miterlimit="10" x1="102.876" y1="316.125" x2="449.204" y2="316.125"/>
		<line fill="none" stroke="#000000" stroke-miterlimit="10" x1="102.876" y1="319.125" x2="449.204" y2="319.125"/>
	</g>
	<g>
		<line fill="none" stroke="#000000" stroke-miterlimit="10" x1="100.716" y1="212.446" x2="447.044" y2="212.446"/>
		<line fill="none" stroke="#000000" stroke-miterlimit="10" x1="100.716" y1="215.446" x2="447.044" y2="215.446"/>
	</g>
</g>
</svg>
