<?xml version="1.0" encoding="utf-8"?>
<!-- Generator: Adobe Illustrator 15.0.1, SVG Export Plug-In . SVG Version: 6.00 Build 0)  -->
<!DOCTYPE svg PUBLIC "-//W3C//DTD SVG 1.1//EN" "http://www.w3.org/Graphics/SVG/1.1/DTD/svg11.dtd">
<svg version="1.1" xmlns="http://www.w3.org/2000/svg" xmlns:xlink="http://www.w3.org/1999/xlink" x="0px" y="0px"
	 width="429.12px" height="519.84px" viewBox="0 0 429.12 519.84" enable-background="new 0 0 429.12 519.84" xml:space="preserve">
<g id="Layer_1_xA0_Image_1_">
</g>
<g id="logo_xA0_Image_1_">
	<g>
		<path fill-rule="evenodd" clip-rule="evenodd" d="M386.939,72.151c-111.287,0-222.549,0-333.841,0
			c-0.816-1.185,1.281-0.96,2.04-0.96c110.149,0,219.604,0,329.76,0C385.686,71.191,387.363,70.765,386.939,72.151z"/>
		<path fill-rule="evenodd" clip-rule="evenodd" fill="#FFFFFF" d="M53.099,72.151c111.292,0,222.554,0,333.841,0
			c0,3.48,0,6.96,0,10.44c-111.287,0-222.549,0-333.841,0C53.099,79.111,53.099,75.631,53.099,72.151z"/>
		<path fill-rule="evenodd" clip-rule="evenodd" d="M53.099,82.591c111.292,0,222.554,0,333.841,0c0,0.32,0,0.64,0,0.96
			c-111.287,0-222.549,0-333.841,0C53.099,83.231,53.099,82.912,53.099,82.591z"/>
		<path fill-rule="evenodd" clip-rule="evenodd" fill="#FFFFFF" d="M53.099,83.551c111.292,0,222.554,0,333.841,0
			c0,45.88,0,91.761,0,137.64c-111.287,0-222.549,0-333.841,0C53.099,175.312,53.099,129.431,53.099,83.551z M197.458,112.231
			c-1.521,4.118-1.56,9.068-1.56,14.28c0,9.272,0,21.378,0,31.8c0,5.333,0,9.585,0,15.84c0,5.021-0.527,10.713,0.48,15.36
			c0.849,3.914,2.705,7.88,5.28,10.56c2.53,2.634,7.348,4.377,11.76,2.28c6.304-2.997,9.121-11.129,9.121-20.88
			c0-18.521,0-36.359,0-54.72c0-4.991-0.049-8.861-1.08-12.6c-1.633-5.914-5.605-13.12-13.44-12.24
			C202.267,102.557,199.18,107.57,197.458,112.231z M55.019,102.872c0,33.239,0,66.48,0,99.72c4.75-0.569,10.513,0.799,15.36-0.12
			c5.702-1.081,9.325-7.397,10.68-12.96c0.855-3.511,0.72-7.561,0.72-12.24c0-16.402,0-35.657,0-52.08
			c0-10.158-2.36-18.035-8.76-21.48c-4.076-2.194-12.168-0.819-17.88-1.2C54.999,102.532,55.008,102.701,55.019,102.872z
			 M107.819,102.872c0,23.912,0,49.584,0,74.16c0,3.886,0.109,8.457-0.84,11.52c-0.941,3.038-2.5,6.503-5.76,6.6
			c-2.614,0.078-4.089-1.919-5.04-3.72c-2.641-5-1.644-14.955-1.8-22.08c-2.2,0-4.4,0-6.6,0c0.162,6.027-0.273,11.659,0.12,16.68
			c0.388,4.955,1.95,9.275,4.32,12.48c2.443,3.304,7.816,6.545,13.32,3.84c5.31-2.61,8.568-9.921,8.88-18.24
			c0.319-8.517,0-18.431,0-27.24c0-18.733,0-37.192,0-54.36c-2.16,0-4.32,0-6.48,0C107.799,102.532,107.808,102.701,107.819,102.872
			z M134.099,102.872c-4.284,33.274-8.571,66.549-12.96,99.72c2.32,0,4.64,0,6.96,0c0.765-5.515,1.258-11.302,2.16-16.68
			c5.08,0,10.16,0,15.24,0c0.638,5.562,1.349,11.051,1.92,16.68c2.36,0,4.72,0,7.08,0c-4.523-33.317-8.883-66.797-13.44-100.08
			c-2.24,0-4.48,0-6.72,0C134.188,102.561,134.093,102.666,134.099,102.872z M161.458,102.872c0,33.239,0,66.48,0,99.72
			c4.75-0.569,10.513,0.799,15.36-0.12c5.702-1.081,9.325-7.397,10.68-12.96c0.855-3.511,0.72-7.561,0.72-12.24
			c0-16.402,0-35.657,0-52.08c0-10.158-2.36-18.035-8.76-21.48c-4.075-2.194-12.168-0.819-17.88-1.2
			C161.439,102.532,161.448,102.701,161.458,102.872z M267.539,102.872c0,33.239,0,66.48,0,99.72c2.24,0,4.48,0,6.719,0
			c0-33.361,0-66.719,0-100.08c-2.199,0-4.398,0-6.6,0C267.52,102.532,267.529,102.701,267.539,102.872z M281.578,102.872
			c4.281,33.277,8.568,66.553,12.961,99.72c2.279,0,4.561,0,6.84,0c4.557-33.284,8.916-66.763,13.439-100.08
			c-2.359,0-4.719,0-7.08,0c-3.229,25.092-6.469,50.17-9.84,75.12c-3.229-24.969-6.291-50.109-9.48-75.12c-2.279,0-4.559,0-6.84,0
			C281.375,102.561,281.604,102.666,281.578,102.872z M329.338,102.872c-4.283,33.274-8.57,66.549-12.959,99.72
			c2.32,0,4.641,0,6.959,0c0.766-5.515,1.258-11.302,2.16-16.68c5.08,0,10.16,0,15.24,0c0.639,5.562,1.35,11.051,1.92,16.68
			c2.361,0,4.721,0,7.08,0c-4.523-33.317-8.883-66.797-13.439-100.08c-2.24,0-4.48,0-6.721,0
			C329.428,102.561,329.334,102.666,329.338,102.872z M356.699,102.872c0,33.239,0,66.48,0,99.72c2.24,0,4.479,0,6.719,0
			c0.08-21.8-0.16-43.92,0.121-65.52c4.381,21.858,8.834,43.646,13.199,65.52c2.24,0,4.48,0,6.721,0c0-33.361,0-66.719,0-100.08
			c-2.24,0-4.48,0-6.721,0c-0.08,21.761,0.16,43.84-0.119,65.4c-4.256-21.904-8.854-43.467-13.08-65.4c-2.24,0-4.48,0-6.721,0
			C356.68,102.532,356.688,102.701,356.699,102.872z"/>
		<path fill-rule="evenodd" clip-rule="evenodd" d="M208.019,101.912c7.835-0.88,11.808,6.326,13.44,12.24
			c1.031,3.739,1.08,7.609,1.08,12.6c0,18.361,0,36.198,0,54.72c0,9.751-2.816,17.883-9.121,20.88
			c-4.412,2.097-9.229,0.354-11.76-2.28c-2.575-2.68-4.432-6.646-5.28-10.56c-1.007-4.646-0.48-10.339-0.48-15.36
			c0-6.254,0-10.507,0-15.84c0-10.422,0-22.528,0-31.8c0-5.211,0.039-10.162,1.56-14.28
			C199.18,107.57,202.267,102.557,208.019,101.912z M206.099,111.271c-3.46,2.994-3.6,8.952-3.6,15.72c0,12.445,0,27.326,0,38.88
			c0,6.399-0.526,13.035,0,19.44c0.33,4.018,2.391,9.437,6.12,9.72c4.623,0.351,6.842-5.254,7.2-9.6c0.521-6.352,0-13.171,0-19.92
			c0-13.765,0-26.079,0-39.96c0-3.567,0.102-6.603-0.719-9.24c-1.04-3.333-3.091-6.807-6.961-6
			C207.471,110.451,206.61,110.829,206.099,111.271z"/>
		<path fill-rule="evenodd" clip-rule="evenodd" d="M55.139,102.511c5.712,0.381,13.804-0.994,17.88,1.2
			c6.4,3.445,8.76,11.322,8.76,21.48c0,16.423,0,35.678,0,52.08c0,4.679,0.135,8.729-0.72,12.24
			c-1.355,5.563-4.978,11.879-10.68,12.96c-4.847,0.919-10.61-0.449-15.36,0.12c0-33.239,0-66.481,0-99.72
			C55.008,102.701,54.999,102.532,55.139,102.511z M61.739,111.271c0,27.641,0,55.279,0,82.92c1.96-0.123,6.147,0.669,8.28-0.12
			c2.358-0.873,3.82-3.977,4.56-7.08c0.778-3.262,0.48-7.388,0.48-11.16c0-15.626,0-31.159,0-46.56c0-7.605,0.117-16.385-5.28-18.12
			c-2.081-0.669-5.52,0.003-7.8-0.24C61.828,110.96,61.733,111.066,61.739,111.271z"/>
		<path fill-rule="evenodd" clip-rule="evenodd" d="M107.938,102.511c2.16,0,4.32,0,6.48,0c0,17.168,0,35.627,0,54.36
			c0,8.809,0.319,18.723,0,27.24c-0.312,8.319-3.57,15.63-8.88,18.24c-5.503,2.705-10.876-0.536-13.32-3.84
			c-2.37-3.205-3.933-7.525-4.32-12.48c-0.393-5.021,0.042-10.653-0.12-16.68c2.2,0,4.4,0,6.6,0c0.156,7.125-0.84,17.08,1.8,22.08
			c0.951,1.801,2.426,3.798,5.04,3.72c3.26-0.097,4.818-3.562,5.76-6.6c0.95-3.063,0.84-7.634,0.84-11.52c0-24.575,0-50.248,0-74.16
			C107.808,102.701,107.799,102.532,107.938,102.511z"/>
		<path fill-rule="evenodd" clip-rule="evenodd" d="M134.338,102.511c2.24,0,4.48,0,6.72,0c4.557,33.283,8.917,66.763,13.44,100.08
			c-2.36,0-4.72,0-7.08,0c-0.571-5.629-1.282-11.118-1.92-16.68c-5.08,0-10.16,0-15.24,0c-0.902,5.377-1.395,11.165-2.16,16.68
			c-2.32,0-4.64,0-6.96,0c4.389-33.17,8.676-66.445,12.96-99.72C134.093,102.666,134.188,102.561,134.338,102.511z M131.338,177.631
			c4.24,0,8.48,0,12.72,0c-2.032-16.848-4.243-33.517-6.48-50.16C135.435,144.127,133.413,160.905,131.338,177.631z"/>
		<path fill-rule="evenodd" clip-rule="evenodd" d="M161.579,102.511c5.712,0.381,13.805-0.994,17.88,1.2
			c6.4,3.445,8.76,11.322,8.76,21.48c0,16.423,0,35.678,0,52.08c0,4.679,0.135,8.729-0.72,12.24
			c-1.355,5.563-4.978,11.879-10.68,12.96c-4.848,0.919-10.611-0.449-15.36,0.12c0-33.239,0-66.481,0-99.72
			C161.448,102.701,161.439,102.532,161.579,102.511z M168.179,111.271c0,27.641,0,55.279,0,82.92c1.96-0.123,6.147,0.669,8.28-0.12
			c2.358-0.873,3.82-3.977,4.56-7.08c0.778-3.262,0.48-7.388,0.48-11.16c0-15.626,0-31.159,0-46.56c0-7.605,0.117-16.385-5.28-18.12
			c-2.081-0.669-5.52,0.003-7.8-0.24C168.268,110.96,168.173,111.066,168.179,111.271z"/>
		<path fill-rule="evenodd" clip-rule="evenodd" d="M267.658,102.511c2.201,0,4.4,0,6.6,0c0,33.361,0,66.719,0,100.08
			c-2.238,0-4.479,0-6.719,0c0-33.239,0-66.481,0-99.72C267.529,102.701,267.52,102.532,267.658,102.511z"/>
		<path fill-rule="evenodd" clip-rule="evenodd" d="M281.578,102.511c2.281,0,4.561,0,6.84,0c3.189,25.011,6.252,50.151,9.48,75.12
			c3.371-24.95,6.611-50.028,9.84-75.12c2.361,0,4.721,0,7.08,0c-4.523,33.317-8.883,66.796-13.439,100.08c-2.279,0-4.561,0-6.84,0
			c-4.393-33.167-8.68-66.442-12.961-99.72C281.604,102.666,281.375,102.561,281.578,102.511z"/>
		<path fill-rule="evenodd" clip-rule="evenodd" d="M329.578,102.511c2.24,0,4.48,0,6.721,0
			c4.557,33.283,8.916,66.763,13.439,100.08c-2.359,0-4.719,0-7.08,0c-0.57-5.629-1.281-11.118-1.92-16.68c-5.08,0-10.16,0-15.24,0
			c-0.902,5.377-1.395,11.165-2.16,16.68c-2.318,0-4.639,0-6.959,0c4.389-33.17,8.676-66.445,12.959-99.72
			C329.334,102.666,329.428,102.561,329.578,102.511z M326.578,177.631c4.24,0,8.48,0,12.721,0
			c-2.033-16.848-4.244-33.517-6.48-50.16C330.674,144.127,328.652,160.905,326.578,177.631z"/>
		<path fill-rule="evenodd" clip-rule="evenodd" d="M356.818,102.511c2.24,0,4.48,0,6.721,0c4.227,21.934,8.824,43.497,13.08,65.4
			c0.279-21.561,0.039-43.64,0.119-65.4c2.24,0,4.48,0,6.721,0c0,33.361,0,66.719,0,100.08c-2.24,0-4.48,0-6.721,0
			c-4.365-21.875-8.818-43.662-13.199-65.52c-0.281,21.6-0.041,43.72-0.121,65.52c-2.24,0-4.479,0-6.719,0
			c0-33.239,0-66.481,0-99.72C356.688,102.701,356.68,102.532,356.818,102.511z"/>
		<path fill-rule="evenodd" clip-rule="evenodd" fill="#FFFFFF" d="M208.139,110.312c3.87-0.807,5.921,2.667,6.961,6
			c0.82,2.637,0.719,5.672,0.719,9.24c0,13.881,0,26.195,0,39.96c0,6.749,0.521,13.568,0,19.92c-0.357,4.346-2.577,9.951-7.2,9.6
			c-3.729-0.283-5.79-5.702-6.12-9.72c-0.526-6.405,0-13.041,0-19.44c0-11.555,0-26.435,0-38.88c0-6.768,0.14-12.726,3.6-15.72
			C206.61,110.829,207.471,110.451,208.139,110.312z"/>
		<path fill-rule="evenodd" clip-rule="evenodd" fill="#FFFFFF" d="M61.979,110.912c2.28,0.243,5.719-0.429,7.8,0.24
			c5.396,1.735,5.28,10.515,5.28,18.12c0,15.401,0,30.934,0,46.56c0,3.772,0.298,7.897-0.48,11.16
			c-0.74,3.103-2.202,6.208-4.56,7.08c-2.132,0.789-6.319-0.002-8.28,0.12c0-27.641,0-55.279,0-82.92
			C61.733,111.066,61.828,110.96,61.979,110.912z"/>
		<path fill-rule="evenodd" clip-rule="evenodd" fill="#FFFFFF" d="M168.418,110.912c2.28,0.243,5.72-0.429,7.8,0.24
			c5.396,1.735,5.28,10.515,5.28,18.12c0,15.401,0,30.934,0,46.56c0,3.772,0.298,7.897-0.48,11.16
			c-0.74,3.103-2.202,6.208-4.56,7.08c-2.132,0.789-6.319-0.002-8.28,0.12c0-27.641,0-55.279,0-82.92
			C168.173,111.066,168.268,110.96,168.418,110.912z"/>
		<path fill-rule="evenodd" clip-rule="evenodd" fill="#FFFFFF" d="M137.579,127.471c2.237,16.644,4.448,33.312,6.48,50.16
			c-4.24,0-8.48,0-12.72,0C133.413,160.905,135.435,144.127,137.579,127.471z"/>
		<path fill-rule="evenodd" clip-rule="evenodd" fill="#FFFFFF" d="M332.818,127.471c2.236,16.644,4.447,33.312,6.48,50.16
			c-4.24,0-8.48,0-12.721,0C328.652,160.905,330.674,144.127,332.818,127.471z"/>
		<path fill-rule="evenodd" clip-rule="evenodd" d="M53.099,221.191c111.292,0,222.554,0,333.841,0c0,0.32,0,0.64,0,0.96
			c-111.287,0-222.549,0-333.841,0C53.099,221.832,53.099,221.511,53.099,221.191z"/>
		<path fill-rule="evenodd" clip-rule="evenodd" fill="#FFFFFF" d="M53.099,222.151c111.292,0,222.554,0,333.841,0
			c0,27.56,0,55.121,0,82.68c-111.287,0-222.549,0-333.841,0C53.099,277.272,53.099,249.711,53.099,222.151z M128.699,242.912
			c0.14,14.628,0.217,29.135,0.6,43.08c0.821,0.255,1.843-0.182,2.88-0.24c0.909-0.052,1.792,0.163,2.76,0.24
			c4.629,0.369,10.092-0.284,14.64,0.12c0.271,2.394,0.097,5.264,0.12,7.68c0.009,0.926-0.039,2.24,0.72,2.76
			c1.716-0.447,0.923-3.017,0.84-5.16c-0.087-2.259,0.504-4.95-0.36-6.479c-0.496-0.464-1.353-0.567-2.16-0.72
			c-0.399-6.767,0.005-14.036-0.24-21.12c-0.179-5.166,0.249-10.503,0-15.601c-0.076-1.562,0.152-3.357-0.84-4.56
			c-1.35,0.809-0.96,2.8-0.96,4.32c0,12.317,0.287,24.94,0.12,37.08c-2.339-0.119-4.923,0.455-6.96-0.119
			c-0.384-12.038-0.24-25.189-0.24-37.44c0-1.534,0.313-3.824-1.44-4.08c-0.986,1.083-0.6,2.769-0.6,4.08
			c0,12.281,0.854,26.122,0.24,37.56c-2.534-0.213-4.737,0.543-7.08,0.12c-0.103-13.521-0.379-27.843-0.6-41.64
			c-0.395-0.005-0.598-0.203-1.08-0.12C128.917,242.729,128.787,242.799,128.699,242.912z M195.539,243.031
			c-3.321,0.245-7.299-0.091-9.84,0c-0.171,0.029-0.203,0.198-0.36,0.24c-0.051,0.492,0.111,0.769,0.24,1.08
			c1.529,0.948,3.885-0.123,5.64-0.12c0.799,1.446,0.48,3.258,0.48,4.92c0,9.118,0.24,17.746,0.24,26.52
			c0,3.562-0.159,7.053,0,10.32c1.508-0.005,1.584-1.613,1.68-2.761c0.259-3.109,0-6.461,0-9.84c0-9.781-0.5-20.034,0-29.04
			c1.883,0.317,4.249,0.151,6.24,0.36C200.237,242.43,197.47,242.889,195.539,243.031z M246.898,277.832
			c0,2.281-0.449,6.904,0.48,7.8c0.344,0.331,2.848,0.617,4.32,0.72c1.977,0.139,3.764-0.261,4.799-0.84
			c4.037-2.255,3.238-15.823,0.84-19.08c-0.361-0.492-1.555-0.635-1.68-1.68c-0.143-1.199,1.465-2.159,1.92-3.12
			c0.488-1.028,0.863-2.479,0.961-3.84c0.279-3.896,0.145-9.673-1.201-12c-1.85-3.202-6.557-3.257-10.439-2.4
			C246.715,255.029,246.898,265.883,246.898,277.832z M273.539,251.912c-0.354-4.192-0.801-9.567-5.641-9
			c-3.457,0.405-4.318,5.528-4.68,9.48c-0.674,7.349-0.33,16.17,0.119,23.4c0.215,3.444,0.82,7.836,2.521,9.479
			c1.461,1.414,4.191,1.929,6.24,0.841c2.201-1.171,2.613-4.85,2.039-8.641c-2.754,0.766-0.842,6.345-3.119,7.32
			c-0.797,0.341-2.195-0.009-2.881-0.36c-4.58-2.344-3.018-15.473-3.119-21.479c2.781-0.562,6.68,0.884,9-0.36
			C274.145,259.524,273.852,255.61,273.539,251.912z M180.059,243.631c-1.371-0.81-4.996-0.583-6.12,0.48
			c-1.52,1.437-2.006,5.349-2.16,9c-0.158,3.745,0,7.274,0,11.16c0,7.955-0.762,16.581,1.92,20.521
			c0.427,0.627,1.545,1.727,2.4,2.04c3.645,1.337,5.045-1.42,5.76-4.2c0.365-1.421,1.428-4.617-0.84-5.04
			c-1.463,2.128-0.509,6.826-3.24,7.2c-3.02,0.413-3.898-3.194-4.08-6.12c-0.306-4.918,0.286-10.021,0-16.32
			c-0.256-5.643-0.822-11.676,0.84-15.12c0.474-0.982,1.623-2.156,2.76-2.16c1.668-0.005,2.348,1.389,2.76,2.76
			c0.397,1.322-0.01,3.609,1.8,3.84C182.743,249.239,181.595,244.539,180.059,243.631z M235.139,250.111
			c-2.162,7.146-4.729,16.337-7.08,21.96c0.195-7.502-0.027-14.604,0.24-22.32c0.045-1.286,0.768-6.549-0.961-6.36
			c-1.23,0.135-0.84,3.608-0.84,3.96c0,5.021,0.088,9.953,0,14.4c-0.143,7.252-0.143,13.389-0.359,19.2
			c-0.07,1.865-0.426,6.143,1.92,5.04c0.578-2.481-0.529-5.249,0-8.04c0.098-0.513,0.518-1.01,0.721-1.561
			c3.32-9.04,5.273-18.31,8.639-27c0.291,10.01-0.119,20.767-0.119,30.72c0,2.207-0.902,5.462,1.439,5.88
			c0.648-1.559,0.361-3.38,0.361-5.04c-0.002-12.562,0.309-25.786,0-37.8C236.879,243.075,235.771,248.019,235.139,250.111z
			 M280.139,243.511c-0.295,6.469,0,13.195,0,19.92c0,6.776,0.393,13.604,0.119,20.04c-0.047,1.132-0.414,2.647,0.361,3.48
			c3.816-1.019,9.281-0.335,14.4-0.36c0.441,3.318-0.451,7.972,0.719,10.561c1.781-0.429,1.08-2.889,1.08-4.921
			c0-2.236,0.084-4.677-0.119-6.479c-0.455-0.706-1.797-0.523-2.521-0.96c0.146-7.221-0.129-14.206-0.238-21.48
			c-0.08-5.194,0.078-10.836-0.361-15.959c-0.07-0.832-0.248-4.24-1.32-4.2c-1.699,0.063-0.406,4.153-0.359,4.8
			c0.418,5.77,0.186,12.25,0.121,18.6c-0.066,6.305-0.104,12.6-0.24,18.48c-3.357-0.156-6.674,0.367-9.84,0
			c-0.203-13.924,0.25-28.082-0.361-41.76c-0.314-0.125-0.736-0.144-1.199-0.12C280.229,243.201,280.133,243.306,280.139,243.511z
			 M156.418,246.392c-0.431,0.61-2.197,3.969-0.72,4.44c1.113,0.354,1.695-2.073,2.28-2.88c0.576-0.795,1.944-2.429,2.88-2.28
			c1.208,0.191,1.511,2.892,1.68,3.84c0.332,1.87,0.4,3.313,0.48,5.04c0.097,2.077,0.672,9.066-0.6,10.2
			c-0.573,0.511-1.794,0.517-2.52,0.84c-1.12,0.498-2.592,1.742-3.24,2.64c-2.33,3.229-3.026,11.232-0.96,15.48
			c0.504,1.037,1.59,2.908,3.24,3.24c2.064,0.415,4.507-0.708,5.28-1.8c1.521-2.15,0.862-7.311,0.72-10.32
			c-0.369-7.817,0.371-15.331-0.24-22.8c-0.287-3.507-0.894-8.865-4.56-8.28C158.744,243.974,157.371,245.042,156.418,246.392z
			 M301.979,246.392c-0.43,0.61-2.197,3.969-0.721,4.44c1.113,0.354,1.695-2.073,2.281-2.88c0.576-0.795,1.943-2.429,2.879-2.28
			c1.209,0.192,1.512,2.892,1.682,3.84c0.33,1.87,0.398,3.313,0.479,5.04c0.098,2.077,0.672,9.066-0.6,10.2
			c-0.572,0.511-1.793,0.517-2.52,0.84c-1.121,0.498-2.592,1.742-3.24,2.64c-2.33,3.229-3.025,11.232-0.961,15.48
			c0.506,1.037,1.59,2.908,3.24,3.24c2.064,0.415,4.508-0.708,5.281-1.8c1.521-2.15,0.861-7.311,0.719-10.32
			c-0.369-7.817,0.371-15.331-0.24-22.8c-0.285-3.507-0.893-8.865-4.559-8.28C304.305,243.974,302.932,245.042,301.979,246.392z
			 M206.338,244.111c-0.401,1.031-0.24,3.315-0.24,5.16c0,9.152,0.083,17.828-0.36,26.16c-0.171,3.211-0.039,6.649-2.04,8.641
			c-0.84,0.167-1.335-0.54-2.04-0.12c-0.301,0.573-0.642,1.354-0.48,2.04c5.124,1.834,5.478-4.472,5.88-8.04
			c1.15-10.206,0.359-22.672,0.72-32.28c2.937,0.023,5.725,0.195,8.76,0.12c-0.193,10.162,0.359,18.842,0.359,28.8
			c0,2.71-0.623,6.699-0.6,9.601c0.004,0.544,0.102,2.505,1.199,2.279c0.896-0.184,0.863-2.878,0.961-4.439
			c0.123-1.981,0.119-3.874,0.119-5.4c0-10.754-0.73-21.947-0.24-32.64c-4.461-0.113-8.214,1.15-11.759-0.24
			C206.428,243.801,206.333,243.906,206.338,244.111z"/>
		<path fill-rule="evenodd" clip-rule="evenodd" d="M129.059,242.671c0.482-0.083,0.685,0.115,1.08,0.12
			c0.221,13.796,0.498,28.118,0.6,41.64c2.343,0.423,4.546-0.333,7.08-0.12c0.613-11.438-0.24-25.278-0.24-37.56
			c0-1.312-0.386-2.998,0.6-4.08c1.753,0.256,1.44,2.546,1.44,4.08c0,12.251-0.144,25.402,0.24,37.44
			c2.037,0.574,4.621,0,6.96,0.119c0.167-12.14-0.12-24.762-0.12-37.08c0-1.52-0.39-3.511,0.96-4.32
			c0.992,1.202,0.764,2.998,0.84,4.56c0.249,5.097-0.179,10.435,0,15.601c0.245,7.084-0.159,14.354,0.24,21.12
			c0.807,0.152,1.664,0.256,2.16,0.72c0.864,1.529,0.273,4.221,0.36,6.479c0.083,2.144,0.875,4.713-0.84,5.16
			c-0.758-0.52-0.711-1.834-0.72-2.76c-0.023-2.416,0.151-5.286-0.12-7.68c-4.548-0.404-10.011,0.249-14.64-0.12
			c-0.968-0.077-1.851-0.292-2.76-0.24c-1.037,0.059-2.059,0.495-2.88,0.24c-0.383-13.945-0.46-28.452-0.6-43.08
			C128.787,242.799,128.917,242.729,129.059,242.671z"/>
		<path fill-rule="evenodd" clip-rule="evenodd" d="M199.859,244.711c-1.992-0.208-4.357-0.043-6.24-0.36
			c-0.5,9.006,0,19.258,0,29.04c0,3.379,0.259,6.73,0,9.84c-0.096,1.147-0.172,2.756-1.68,2.761c-0.159-3.268,0-6.758,0-10.32
			c0-8.774-0.24-17.402-0.24-26.52c0-1.662,0.319-3.474-0.48-4.92c-1.755-0.002-4.111,1.068-5.64,0.12
			c-0.129-0.312-0.292-0.588-0.24-1.08c0.158-0.042,0.189-0.211,0.36-0.24c2.541-0.091,6.519,0.245,9.84,0
			C197.47,242.889,200.237,242.43,199.859,244.711z"/>
		<path fill-rule="evenodd" clip-rule="evenodd" d="M246.898,243.392c3.883-0.857,8.59-0.802,10.439,2.4
			c1.346,2.327,1.48,8.104,1.201,12c-0.098,1.36-0.473,2.812-0.961,3.84c-0.455,0.961-2.062,1.921-1.92,3.12
			c0.125,1.045,1.318,1.188,1.68,1.68c2.398,3.257,3.197,16.825-0.84,19.08c-1.035,0.579-2.822,0.979-4.799,0.84
			c-1.473-0.103-3.977-0.389-4.32-0.72c-0.93-0.896-0.48-5.519-0.48-7.8C246.898,265.883,246.715,255.029,246.898,243.392z
			 M255.539,261.751c2.201-3.198,1.771-13.771-0.84-15.72c-1.502-1.031-3.838-1.719-6-0.84c0,5.88,0,11.76,0,17.64
			C251.592,263.335,254.146,263.772,255.539,261.751z M256.139,283.471c1.82-1.821,1.568-6.863,1.32-10.2
			c-0.432-5.813-2.598-9.745-8.52-7.8c-0.512,5.771-0.117,12.444-0.24,18.601C251.367,284.509,254.5,285.11,256.139,283.471z"/>
		<path fill-rule="evenodd" clip-rule="evenodd" d="M274.02,262.591c-2.32,1.244-6.219-0.201-9,0.36
			c0.102,6.007-1.461,19.136,3.119,21.479c0.686,0.352,2.084,0.701,2.881,0.36c2.277-0.976,0.365-6.555,3.119-7.32
			c0.574,3.791,0.162,7.47-2.039,8.641c-2.049,1.088-4.779,0.573-6.24-0.841c-1.701-1.644-2.307-6.035-2.521-9.479
			c-0.449-7.229-0.793-16.051-0.119-23.4c0.361-3.952,1.223-9.075,4.68-9.48c4.84-0.567,5.287,4.808,5.641,9
			C273.852,255.61,274.145,259.524,274.02,262.591z M271.859,252.511c-0.154-2.439-0.271-6.281-1.682-7.32
			c-1.186-0.873-2.879-0.201-3.479,0.48c-2.482,2.815-1.746,10.892-1.801,15.6c2.49-0.09,4.744,0.285,7.08,0
			C271.961,258.385,272.051,255.556,271.859,252.511z"/>
		<path fill-rule="evenodd" clip-rule="evenodd" d="M181.859,251.671c-1.81-0.231-1.403-2.518-1.8-3.84
			c-0.412-1.371-1.092-2.766-2.76-2.76c-1.137,0.004-2.286,1.178-2.76,2.16c-1.662,3.444-1.096,9.477-0.84,15.12
			c0.286,6.299-0.306,11.402,0,16.32c0.182,2.926,1.061,6.533,4.08,6.12c2.731-0.374,1.777-5.072,3.24-7.2
			c2.268,0.423,1.206,3.619,0.84,5.04c-0.715,2.78-2.115,5.537-5.76,4.2c-0.854-0.313-1.973-1.413-2.4-2.04
			c-2.682-3.939-1.92-12.565-1.92-20.521c0-3.886-0.158-7.415,0-11.16c0.154-3.651,0.64-7.563,2.16-9
			c1.124-1.062,4.749-1.29,6.12-0.48C181.595,244.539,182.743,249.239,181.859,251.671z"/>
		<path fill-rule="evenodd" clip-rule="evenodd" d="M239.1,243.151c0.309,12.015-0.002,25.238,0,37.8c0,1.66,0.287,3.481-0.361,5.04
			c-2.342-0.418-1.439-3.673-1.439-5.88c0-9.953,0.41-20.71,0.119-30.72c-3.365,8.69-5.318,17.959-8.639,27
			c-0.203,0.551-0.623,1.048-0.721,1.561c-0.529,2.791,0.578,5.559,0,8.04c-2.346,1.103-1.99-3.175-1.92-5.04
			c0.217-5.812,0.217-11.948,0.359-19.2c0.088-4.447,0-9.379,0-14.4c0-0.352-0.391-3.825,0.84-3.96
			c1.729-0.189,1.006,5.074,0.961,6.36c-0.268,7.717-0.045,14.818-0.24,22.32c2.352-5.623,4.918-14.814,7.08-21.96
			C235.771,248.019,236.879,243.075,239.1,243.151z"/>
		<path fill-rule="evenodd" clip-rule="evenodd" d="M280.379,243.151c0.463-0.023,0.885-0.004,1.199,0.12
			c0.611,13.678,0.158,27.836,0.361,41.76c3.166,0.367,6.482-0.156,9.84,0c0.137-5.881,0.174-12.176,0.24-18.48
			c0.064-6.35,0.297-12.83-0.121-18.6c-0.047-0.647-1.34-4.737,0.359-4.8c1.072-0.04,1.25,3.369,1.32,4.2
			c0.439,5.123,0.281,10.766,0.361,15.959c0.109,7.274,0.385,14.26,0.238,21.48c0.725,0.437,2.066,0.254,2.521,0.96
			c0.203,1.803,0.119,4.243,0.119,6.479c0,2.032,0.701,4.492-1.08,4.921c-1.17-2.589-0.277-7.242-0.719-10.561
			c-5.119,0.025-10.584-0.658-14.4,0.36c-0.775-0.833-0.408-2.349-0.361-3.48c0.273-6.437-0.119-13.264-0.119-20.04
			c0-6.725-0.295-13.451,0-19.92C280.133,243.306,280.229,243.201,280.379,243.151z"/>
		<path fill-rule="evenodd" clip-rule="evenodd" d="M160.139,243.751c3.666-0.585,4.273,4.773,4.56,8.28
			c0.61,7.47-0.129,14.983,0.24,22.8c0.143,3.01,0.801,8.17-0.72,10.32c-0.773,1.092-3.216,2.215-5.28,1.8
			c-1.65-0.332-2.735-2.203-3.24-3.24c-2.066-4.248-1.37-12.251,0.96-15.48c0.647-0.897,2.12-2.142,3.24-2.64
			c0.726-0.323,1.947-0.329,2.52-0.84c1.272-1.134,0.697-8.123,0.6-10.2c-0.08-1.727-0.148-3.17-0.48-5.04
			c-0.168-0.948-0.472-3.648-1.68-3.84c-0.936-0.148-2.305,1.485-2.88,2.28c-0.584,0.807-1.167,3.234-2.28,2.88
			c-1.478-0.471,0.289-3.83,0.72-4.44C157.371,245.042,158.744,243.974,160.139,243.751z M159.299,268.112
			c-2.387,1.767-4.008,8.611-2.76,12.96c0.346,1.205,1.695,3.516,2.64,3.84c1.151,0.395,2.882-0.076,3.48-0.84
			c0.975-1.245,0.72-4.419,0.72-6.601c0-4.05-0.14-7.419-0.48-10.56C161.725,267.007,160.177,267.46,159.299,268.112z"/>
		<path fill-rule="evenodd" clip-rule="evenodd" d="M305.699,243.751c3.666-0.585,4.273,4.773,4.559,8.28
			c0.611,7.47-0.129,14.983,0.24,22.8c0.143,3.01,0.803,8.17-0.719,10.32c-0.773,1.092-3.217,2.215-5.281,1.8
			c-1.65-0.332-2.734-2.203-3.24-3.24c-2.064-4.248-1.369-12.251,0.961-15.48c0.648-0.897,2.119-2.142,3.24-2.64
			c0.727-0.323,1.947-0.329,2.52-0.84c1.271-1.134,0.697-8.123,0.6-10.2c-0.08-1.727-0.148-3.17-0.479-5.04
			c-0.17-0.948-0.473-3.648-1.682-3.84c-0.936-0.148-2.303,1.485-2.879,2.28c-0.586,0.807-1.168,3.234-2.281,2.88
			c-1.477-0.471,0.291-3.83,0.721-4.44C302.932,245.042,304.305,243.974,305.699,243.751z M304.859,268.112
			c-2.387,1.767-4.008,8.611-2.76,12.96c0.346,1.205,1.693,3.516,2.639,3.84c1.152,0.395,2.883-0.076,3.48-0.84
			c0.975-1.245,0.721-4.419,0.721-6.601c0-4.05-0.141-7.419-0.48-10.56C307.285,267.007,305.736,267.461,304.859,268.112z"/>
		<path fill-rule="evenodd" clip-rule="evenodd" d="M206.579,243.751c3.545,1.39,7.298,0.127,11.759,0.24
			c-0.49,10.693,0.24,21.886,0.24,32.64c0,1.526,0.004,3.419-0.119,5.4c-0.098,1.562-0.064,4.256-0.961,4.439
			c-1.098,0.226-1.195-1.735-1.199-2.279c-0.023-2.901,0.6-6.891,0.6-9.601c0-9.958-0.553-18.638-0.359-28.8
			c-3.036,0.075-5.823-0.097-8.76-0.12c-0.361,9.608,0.43,22.074-0.72,32.28c-0.402,3.568-0.756,9.874-5.88,8.04
			c-0.162-0.687,0.179-1.467,0.48-2.04c0.705-0.42,1.2,0.287,2.04,0.12c2.001-1.991,1.869-5.43,2.04-8.641
			c0.443-8.332,0.36-17.007,0.36-26.16c0-1.845-0.162-4.129,0.24-5.16C206.333,243.906,206.428,243.801,206.579,243.751z"/>
		<path fill-rule="evenodd" clip-rule="evenodd" fill="#FFFFFF" d="M248.699,262.832c0-5.88,0-11.76,0-17.64
			c2.162-0.879,4.498-0.191,6,0.84c2.611,1.95,3.041,12.522,0.84,15.72C254.146,263.772,251.592,263.335,248.699,262.832z"/>
		<path fill-rule="evenodd" clip-rule="evenodd" fill="#FFFFFF" d="M271.979,261.271c-2.336,0.285-4.59-0.09-7.08,0
			c0.055-4.708-0.682-12.784,1.801-15.6c0.6-0.681,2.293-1.353,3.479-0.48c1.41,1.039,1.527,4.88,1.682,7.32
			C272.051,255.556,271.961,258.385,271.979,261.271z"/>
		<path fill-rule="evenodd" clip-rule="evenodd" fill="#FFFFFF" d="M248.699,284.072c0.123-6.156-0.271-12.83,0.24-18.601
			c5.922-1.945,8.088,1.986,8.52,7.8c0.248,3.337,0.5,8.379-1.32,10.2C254.5,285.11,251.367,284.509,248.699,284.072z"/>
		<path fill-rule="evenodd" clip-rule="evenodd" fill="#FFFFFF" d="M162.898,266.912c0.34,3.141,0.48,6.51,0.48,10.56
			c0,2.182,0.255,5.355-0.72,6.601c-0.598,0.764-2.329,1.234-3.48,0.84c-0.945-0.324-2.294-2.635-2.64-3.84
			c-1.248-4.349,0.374-11.193,2.76-12.96C160.177,267.46,161.725,267.007,162.898,266.912z"/>
		<path fill-rule="evenodd" clip-rule="evenodd" fill="#FFFFFF" d="M308.459,266.912c0.34,3.141,0.48,6.51,0.48,10.56
			c0,2.182,0.254,5.355-0.721,6.601c-0.598,0.764-2.328,1.234-3.48,0.84c-0.945-0.324-2.293-2.635-2.639-3.84
			c-1.248-4.349,0.373-11.193,2.76-12.96C305.736,267.461,307.285,267.007,308.459,266.912z"/>
		<path fill-rule="evenodd" clip-rule="evenodd" d="M53.099,304.832c111.292,0,222.554,0,333.841,0c0,0.32,0,0.64,0,0.96
			c-111.287,0-222.549,0-333.841,0C53.099,305.471,53.099,305.152,53.099,304.832z"/>
		<path fill-rule="evenodd" clip-rule="evenodd" fill="#FFFFFF" d="M53.099,305.792c111.292,0,222.554,0,333.841,0
			c0,3.2,0,6.4,0,9.6c-111.287,0-222.549,0-333.841,0C53.099,312.192,53.099,308.992,53.099,305.792z"/>
		<path fill-rule="evenodd" clip-rule="evenodd" d="M53.099,315.391c111.292,0,222.554,0,333.841,0c0,0.32,0,0.641,0,0.96
			c-111.287,0-222.549,0-333.841,0C53.099,316.032,53.099,315.711,53.099,315.391z"/>
		<path fill-rule="evenodd" clip-rule="evenodd" fill="#FFFFFF" d="M53.099,316.351c111.292,0,222.554,0,333.841,0
			C275.943,316.551,164.093,316.551,53.099,316.351z"/>
	</g>
</g>
</svg>
