<?xml version="1.0" encoding="utf-8"?>
<!-- Generator: Adobe Illustrator 18.1.0, SVG Export Plug-In . SVG Version: 6.00 Build 0)  -->
<svg version="1.1" id="Layer_1" xmlns="http://www.w3.org/2000/svg" xmlns:xlink="http://www.w3.org/1999/xlink" x="0px" y="0px"
	 viewBox="0 0 270.9 113.3" enable-background="new 0 0 270.9 113.3" xml:space="preserve">
<g>
	<path fill-rule="evenodd" clip-rule="evenodd" fill="#FFFFFF" d="M1.4,0c89.8,0,179.7,0,269.5,0c0,37.8,0,75.5,0,113.3
		c-89.9,0-179.8,0-269.8,0c0-37.5,0-75,0-112.6C1.1,0.4,1.1,0,1.4,0z M2.4,1.7c0,36.9,0,73.8,0,110.6c89.1,0,178.2,0,267.4,0
		c0-37.1,0-74.2,0-111.4C180.7,1,91.6,1,2.6,1C2.3,1,2.3,1.3,2.4,1.7z"/>
	<path fill-rule="evenodd" clip-rule="evenodd" fill="#FFFFFF" d="M93.6,24.7c-0.6,1.2-1.5,2.2-3.6,1.9
		C90.8,25.6,91.4,24.4,93.6,24.7z"/>
	<path fill-rule="evenodd" clip-rule="evenodd" fill="#FFFFFF" d="M31.2,30.5c-1.7,0.4-2-0.6-2.6-1.2c-4.3-1.2-3.9,3.4-3.4,6.2
		c1.9,2.1,3.9-0.6,6-0.5c0.5,3.4-5.5,3.7-7.2,2.2c-1.3-1.2-1.6-5.6-0.7-7.7C24.5,26.5,31.3,26.7,31.2,30.5z"/>
	<path fill-rule="evenodd" clip-rule="evenodd" fill="#FFFFFF" d="M33.6,28.6c2.6-1.3,5.8-1.8,7.2,0.5c1.1,1.8,0.8,6.9-0.5,8.2
		c-1.4,1.3-5.5,1.2-6.7-0.2C32.2,35.4,32.7,30.6,33.6,28.6z M35.2,36c0.8,0.3,2,0.2,3.1,0.2c1.4-0.9,1.3-5,0.5-6.5
		C34.6,27.1,33.6,33.3,35.2,36z"/>
	<path fill-rule="evenodd" clip-rule="evenodd" fill="#FFFFFF" d="M134.8,30.5c-1.8,0.4-1.8-0.9-2.9-1.2c-4.1-1.1-3.6,3.6-3.1,6.2
		c1.2,1.5,5.2,0.9,4.3-1.9c-0.3-0.7-2.1,0.2-2.4-0.5c0-0.2,0-0.5,0-0.7c0.5-1.1,2.8-0.2,4.1-0.5c0,2,0,4,0,6c-1.4-1.3-4.6,1.2-7-0.5
		c-1.7-1.2-1.8-6-1-7.9C128.2,26.5,134.6,26.5,134.8,30.5z"/>
	<path fill-rule="evenodd" clip-rule="evenodd" fill="#FFFFFF" d="M45.1,27.8c0.1,2.7-0.4,6.1,0.5,8.2c0.7,0.3,2.4,0.5,3.1,0
		c1.6-1.5-0.1-6.4,1.2-8.2c0.2,0,0.3,0,0.5,0c1.3,0.6,0.7,3,0.7,4.6c0,1.8,0.2,3.6-0.7,4.6c-1.6,1.8-5.3,1.2-6.7-0.5
		c-0.5-2.5-0.1-5.8-0.2-8.6C44,27.8,44.5,27.8,45.1,27.8z"/>
	<path fill-rule="evenodd" clip-rule="evenodd" fill="#FFFFFF" d="M53.5,27.8c2.3,0.2,5.4-0.4,7,0.5c0.9,0.8,1.1,3.8,0,4.6
		c1.2,0.7,0.5,3.3,0.7,5c-0.6,0-1.1,0-1.7,0c-0.1-1.2,0.3-3-0.2-3.8c-0.9-0.6-2.8-0.1-4.1-0.2c0,1.4,0,2.7,0,4.1c-0.6,0-1.1,0-1.7,0
		C53.5,34.6,53.5,31.2,53.5,27.8z M55.4,32.2c1.3-0.1,3.2,0.3,3.8-0.5c0.3-0.7,0.3-1.2,0-1.9C57.6,28.5,53.6,29.3,55.4,32.2z"/>
	<path fill-rule="evenodd" clip-rule="evenodd" fill="#FFFFFF" d="M62.4,27.8c0.8,0,3,0,4.6,0c1.2,0,3.7-0.6,3.4,1
		c-0.2,1-2.2,0.2-3.1,0.5c0,2.9,0,5.8,0,8.6c-0.6,0-1.1,0-1.7,0c0-2.8,0-5.6,0-8.4c-0.6-0.5-2.1-0.1-3.1-0.2
		C62.4,28.8,62.4,28.3,62.4,27.8z"/>
	<path fill-rule="evenodd" clip-rule="evenodd" fill="#FFFFFF" d="M75.3,27.8c0.8,0,1.6,0,2.4,0c0.9,2.5,1.9,5,2.6,7.7
		c1.1-2.3,1.9-5,2.6-7.7c0.9,0,1.8,0,2.6,0c0,1.6,0,3.8,0,5.8c0,1.6,0.7,4.4-1.2,4.3c-1.1-1.5-0.2-5.1-0.5-7.4
		c-1.3,2.1-1.6,5.3-2.9,7.4c-2.8,0.3-2.8-5.5-3.8-7.4c-0.6,2-0.1,5-0.2,7.4c-0.6,0-1.1,0-1.7,0C75.3,34.6,75.3,31.2,75.3,27.8z"/>
	<path fill-rule="evenodd" clip-rule="evenodd" fill="#FFFFFF" d="M88.3,27.8c2.2,0.3,5.6-0.6,7,0.5c0,2-3.5,0.5-5,1
		c-0.5,0.4-0.1,1.8-0.2,2.6c1.5,0.4,4.7-0.8,5,0.7c-0.3,1.6-3.3,0.3-4.8,0.7c-0.5,0.6-0.2,1.9-0.2,2.9c1.7,0.2,4-0.3,5.3,0.2
		c0.1,2.9-4.8,0.8-7,1.4C88.3,34.6,88.3,31.2,88.3,27.8z"/>
	<path fill-rule="evenodd" clip-rule="evenodd" fill="#FFFFFF" d="M96.7,27.8c0.8,0,3,0,4.6,0c1.2,0,3.7-0.6,3.4,1
		c-0.1,1-2,0.2-2.9,0.5c-0.1,2.8,0.3,6.2-0.2,8.6c-0.6,0-1.1,0-1.7,0c0-2.8,0-5.6,0-8.4c-0.6-0.6-2.2-0.1-3.1-0.2
		C96.7,28.8,96.7,28.3,96.7,27.8z"/>
	<path fill-rule="evenodd" clip-rule="evenodd" fill="#FFFFFF" d="M106.5,27.8c2.3,0.2,5.4-0.4,7,0.5c0.8,0.7,1.2,3.7,0,4.3
		c1,1,0.7,3.3,0.7,5.3c-0.6,0-1.1,0-1.7,0c-0.1-1.2,0.3-3-0.2-3.8c-0.9-0.6-2.8-0.1-4.1-0.2c0,1.4,0,2.7,0,4.1c-0.6,0-1.1,0-1.7,0
		C106.5,34.6,106.5,31.2,106.5,27.8z M108.4,32.2c1.3-0.1,3.2,0.3,3.8-0.5c0.3-0.7,0.3-1.2,0-1.9C110.6,28.5,106.6,29.3,108.4,32.2z
		"/>
	<path fill-rule="evenodd" clip-rule="evenodd" fill="#FFFFFF" d="M121.6,27.8c1.1,3.5,2.7,6.4,3.6,10.1c-2.2,0.5-2.3-1.2-2.6-2.6
		c-1.3,0-2.6,0-3.8,0c-0.7,0.6-0.6,1.9-1.2,2.6c-0.6,0-1.1,0-1.7,0c0.9-3.6,2.7-6.5,3.6-10.1C120.2,27.8,120.9,27.8,121.6,27.8z
		 M119.2,33.6c0.9,0,1.8,0,2.6,0c-0.4-1.3-0.7-2.6-1.4-3.6C120.2,31.3,119.5,32.3,119.2,33.6z"/>
	<path fill-rule="evenodd" clip-rule="evenodd" fill="#FFFFFF" d="M137.5,27.8c2.2,0.3,5.6-0.6,7,0.5c0,2-3.3,0.5-4.8,1
		c-0.5,0.4-0.1,1.8-0.2,2.6c1.5,0.4,4.7-0.8,5,0.7c-0.3,1.6-3.3,0.3-4.8,0.7c-0.6,0.5-0.1,2-0.2,2.9c1.6,0.2,3.8-0.3,5,0.2
		c0,0.3,0,0.6,0,1c-1.3,1.1-4.6,0.2-6.7,0.5C137.2,35,137.6,31.1,137.5,27.8z"/>
	<path fill-rule="evenodd" clip-rule="evenodd" fill="#FFFFFF" d="M117.6,49c-3.1,0.3-4.9-2.9-7.4-0.5c-0.4,0.9-0.2,2.4-0.2,3.6
		c1.8,0,3.5,0,5.3,0c0,0.7,0,1.4,0,2.2c-1.7,0-3.4,0-5,0c-0.6,3.6-0.1,8.2-0.2,12.2c-0.9-0.1-2.1,0.2-2.6-0.2c0-3.9,0-7.8,0-11.8
		c-0.3-0.5-1.5-0.1-2.2-0.2c0-0.7,0-1.4,0-2.2c0.7,0,1.4,0,2.2,0C104.8,44.8,116.8,43.2,117.6,49z"/>
	<path fill-rule="evenodd" clip-rule="evenodd" fill="#FFFFFF" d="M41.5,45.8c0,2.3,0,4.6,0,7c2.1-1,7.2-2,8.9,0.7
		c1.9,3.2,0.2,8.6,0.5,13c-0.8,0-1.6,0-2.4,0c-0.4-3.9,0.9-9.6-1-12c-7.9-2.7-5.6,6.7-6.2,12c-0.8,0-1.6,0-2.4,0
		c0-6.9,0-13.8,0-20.6C39.7,45.8,40.6,45.8,41.5,45.8z"/>
	<path fill-rule="evenodd" clip-rule="evenodd" fill="#FFFFFF" d="M129.8,45.8c0,6.9,0,13.8,0,20.6c-0.8,0-1.6,0-2.4,0
		c0-6.9,0-13.8,0-20.6C128.2,45.8,129,45.8,129.8,45.8z"/>
	<path fill-rule="evenodd" clip-rule="evenodd" fill="#FFFFFF" d="M121.9,47c0,0.6,0,1.1,0,1.7c-0.7,0.9-2.2,0.9-2.9,0
		c0-0.6,0-1.1,0-1.7C119.8,46.2,121.1,46.2,121.9,47z"/>
	<path fill-rule="evenodd" clip-rule="evenodd" fill="#FFFFFF" d="M89.2,46.6c0,1.8,0,3.5,0,5.3c1.6,0.6,4.2,0.1,6.2,0.2
		c0,0.7,0,1.4,0,2.2c-2.1,0-4.2,0-6.2,0c0.1,4.4-1.2,12.3,3.8,10.1c1-0.4,0.9-1.2,1.7-2.2c0.6,0,1.3,0,1.9,0
		c0.4,4.6-5.5,5.7-8.4,3.8c-2.9-1.9-1.2-7.2-1.7-11.5c-0.3-0.5-1.7-0.1-2.4-0.2c0-0.7,0-1.4,0-2.2c0.8,0,1.6,0,2.4,0
		C86.9,49.6,85.4,45.4,89.2,46.6z"/>
	<path fill-rule="evenodd" clip-rule="evenodd" fill="#FFFFFF" d="M35.2,56.2c-0.6,0-1.3,0-1.9,0c-0.9-0.3-0.5-1.7-1.4-1.9
		c-1.7-0.4-4.6-0.5-5.8,0.5c-2.5,5.4,6.6,1.7,8.6,4.8c0.6,0.9,0.9,3.8,0,5.3c-1.8,3.1-12.5,3.3-11.8-2.6c0.6,0,1.3,0,1.9,0
		c0.5,2.8,5.9,3.1,7.7,1.2c-0.1-0.8,0.2-1.9-0.2-2.4c-2.3-1.5-6.5,0-8.2-1.7c-1.5-1.5-1.3-4.9,0-6.2C26.8,50.4,36,51,35.2,56.2z"/>
	<path fill-rule="evenodd" clip-rule="evenodd" fill="#FFFFFF" d="M59,52.1c2.9-0.6,6.1-0.2,7.4,1.2c2.1,2.3,1.6,9.7,0.2,11.5
		c-1.9,2.5-9.3,2.8-11.3-0.2c-1.5-2.4-1.5-9,0.2-11C56.4,52.6,57,52.5,59,52.1z M64.8,55.4c-1.2-1.9-5.9-2-7.2,0
		c-0.9,1.5-1.2,6.3,0.2,7.9c1.1,1.3,4.7,1.4,6.5,0.2C65.3,61.4,66,57.4,64.8,55.4z"/>
	<path fill-rule="evenodd" clip-rule="evenodd" fill="#FFFFFF" d="M82.5,56.2c-0.9,0-1.8,0-2.6,0c0.2-1.1-0.4-1.4-0.7-1.9
		c-6.6-1.7-5.1,6.6-5.3,12.2c-0.8,0-1.6,0-2.4,0c0-4.8,0-9.6,0-14.4c0.6,0,1.3,0,1.9,0c0.7-0.2,0.4,0.5,0.5,1
		C75.9,51.2,83.3,51.1,82.5,56.2z"/>
	<path fill-rule="evenodd" clip-rule="evenodd" fill="#FFFFFF" d="M145.9,53.5c2-1.9,6.4-2.5,8.4-0.7c2.9,2.6,0.3,9.1,1.2,13.7
		c-0.9-0.1-2.1,0.2-2.6-0.2c-0.2-3.6,0.3-7.8-0.2-11c-6.3-4.5-6.2,5.3-5.8,11c-0.5,0.4-1.8,0.2-2.6,0.2c-0.2-3.7,0.3-8-0.2-11.3
		c-6.5-4.5-6.3,5.6-6,11.3c-0.8,0-1.6,0-2.4,0c0-4.8,0-9.6,0-14.4c0.9,0.2,2.9-0.6,2.4,1C139,51.9,144.8,50.9,145.9,53.5z"/>
	<path fill-rule="evenodd" clip-rule="evenodd" fill="#FFFFFF" d="M178.5,56.2c-2.4,0.9-2.4-1.4-3.8-1.9c-1.7-0.7-4.6-0.3-5.5,1
		c-1.4,1.9-1.1,8.3,1.7,9.1c0.9,0.3,2.7,0.2,3.8-0.2c1.4-0.6,0.8-2.4,3.6-1.9c0.7,5.4-8.2,5.7-10.8,3.1c-2.1-2-2.3-8.9-0.5-11.5
		C169.1,50.8,178.9,50.6,178.5,56.2z"/>
	<path fill-rule="evenodd" clip-rule="evenodd" fill="#FFFFFF" d="M186,52.1c2.6-0.5,6-0.3,7.4,1.4c1.7,2,2,9.2,0,11.5
		c-2.1,2.3-8.4,2.6-10.8,0c-1.9-2.1-1.8-9.1-0.2-11.3C183.1,52.7,184.7,52.3,186,52.1z M191.7,62.9c0.8-1.6,0.8-6.3-0.2-7.7
		c-1.2-1.6-5.7-1.7-7,0c-1.6,2.1,0,5-0.2,7.7C186,64.8,190.5,65.3,191.7,62.9z"/>
	<path fill-rule="evenodd" clip-rule="evenodd" fill="#FFFFFF" d="M209.2,56.2c-0.6,0-1.3,0-1.9,0c-0.8,0-0.4-1.4-1-1.7
		c-6.7-2.6-5.6,6.3-5.5,12c-0.9-0.1-2.1,0.2-2.6-0.2c0-4.7,0-9.4,0-14.2c0.6,0,1.3,0,1.9,0c0.7-0.2,0.4,0.5,0.5,1
		C202.5,51.4,210.3,50.8,209.2,56.2z"/>
	<path fill-rule="evenodd" clip-rule="evenodd" fill="#FFFFFF" d="M223.9,66.2c-0.5,0.4-1.8,0.2-2.6,0.2c-0.5-4,1.3-10.4-1.4-12.2
		c-7.5-1.7-5.2,6.5-5.5,12c-0.5,0.4-1.8,0.2-2.6,0.2c0-4.8,0-9.6,0-14.4c0.9,0.2,2.9-0.6,2.4,1c2-1.3,7.4-2.2,9.1,0.5
		C225.2,56.6,223.1,61.6,223.9,66.2z"/>
	<path fill-rule="evenodd" clip-rule="evenodd" fill="#FFFFFF" d="M240,60c-3.3,0.2-7.2-0.3-10.1,0.2c-0.4,4.1,3.4,5.2,6.2,3.8
		c1.4-0.7,1.6-2.7,3.6-1.9c0.6,5.8-9.5,5.5-11.5,2.4c-1.6-2.5-1.6-10.2,1.4-12C234.1,49.9,242,52.7,240,60z M229.9,57.8
		c2.6,0,5.1,0,7.7,0C238.8,52.4,228.8,52.8,229.9,57.8z"/>
	<path fill-rule="evenodd" clip-rule="evenodd" fill="#FFFFFF" d="M254.8,56.2c-0.8,0-1.6,0-2.4,0c-0.2-0.7-0.5-1.5-1-1.9
		c-6.6-1.7-5.1,6.6-5.3,12.2c-0.8,0-1.6,0-2.4,0c0-4.8,0-9.6,0-14.4c0.6,0,1.3,0,1.9,0c0.7-0.2,0.4,0.5,0.5,1
		C248.2,51.2,255.6,51.1,254.8,56.2z"/>
	<path fill-rule="evenodd" clip-rule="evenodd" fill="#FFFFFF" d="M121.6,52.1c0,4.8,0,9.6,0,14.4c-0.8,0-1.6,0-2.4,0
		c0-4.8,0-9.6,0-14.4C120,52.1,120.8,52.1,121.6,52.1z"/>
	<path fill-rule="evenodd" clip-rule="evenodd" fill="#FFFFFF" d="M49.2,80.4c-2.1,0.5-1.9-1.1-3.1-1.4c-1.9-0.3-4.1,0.4-3.1,2.2
		c1.9,1.2,4,0,5.3,1c4.7,3.3-3.8,8.5-6.7,5c-0.4-0.5-0.4-1-0.5-2.2c1.6-0.4,1.8,0.6,2.4,1.2c1.9,0.4,4.8,0.1,3.8-2.2
		c-3.3-0.3-8.2-1.2-5.8-5.8C43.7,76.9,49.4,76.6,49.2,80.4z"/>
	<path fill-rule="evenodd" clip-rule="evenodd" fill="#FFFFFF" d="M125.7,80.4c-2.1,0.5-1.9-1.1-3.1-1.4c-4.3-1.1-3.9,5.4-2.4,7.2
		c3,0.8,3.1-1.4,5.5-1.2c0,4.1-6.7,3.7-7.9,1.4c-1-1.9-0.9-6.8,0.5-8.2C119.9,76.5,126.1,76.7,125.7,80.4z"/>
	<path fill-rule="evenodd" clip-rule="evenodd" fill="#FFFFFF" d="M176.8,80.2c-1.6,1.1-2.1-0.9-3.1-1.2c-2.2-0.2-3.7,0.3-3.4,1.7
		c0.5,2.1,4.9,0.2,6,1.9c3.7,5.5-7.8,7.7-7.9,2.4c1.7-0.5,1.9,0.6,2.6,1.2c1.5,0.2,2.7,0.2,3.8-0.5c0-0.6,0-1.3,0-1.9
		c-1.9-0.5-4.7-0.1-6-1.2C165.6,77,176.4,75.2,176.8,80.2z"/>
	<path fill-rule="evenodd" clip-rule="evenodd" fill="#FFFFFF" d="M190,78c0.8,1.2,0.8,3.1,0.2,4.6c-1.3,1.5-4.9,0.7-5,3.4
		c1,1,3.8,0.2,5.5,0.5c0.3,3.3-4.9,1-7.2,1.7c0-1.7-0.2-3.7,0.5-4.8c1.5-1.3,5.3-0.3,4.8-3.6c-1.5-2.1-3.3,0.5-5.3,0.2
		C183.1,76.7,188.2,76.8,190,78z"/>
	<path fill-rule="evenodd" clip-rule="evenodd" fill="#FFFFFF" d="M198.9,78c1.3,2.1,1.3,7.2,0,9.4C190.1,93.1,190.1,72.2,198.9,78z
		 M194.8,86.2c0.6,0.5,2,0.2,2.6,0c0.7-1.6,0.7-5.4,0-7C193.3,77,194,84.1,194.8,86.2z"/>
	<path fill-rule="evenodd" clip-rule="evenodd" fill="#FFFFFF" d="M205.9,77.5c0,2.9,0,5.8,0,8.6c0.3,0.5,1.7,0.1,2.4,0.2
		c0,0.5,0,1,0,1.4c-2.2,0-4.5,0-6.7,0c0-0.5,0-1,0-1.4c0.8,0,1.6,0,2.4,0c0-2.1,0-4.2,0-6.2c-0.6-0.5-0.8,1.3-1.9,1
		c-0.2-0.3-0.4-0.7-0.7-1C202.4,79,203.6,76.7,205.9,77.5z"/>
	<path fill-rule="evenodd" clip-rule="evenodd" fill="#FFFFFF" d="M209.7,77.3c2.2,0.6,7.1-1.5,6.7,1.7c-1.6,0-3.2,0-4.8,0
		c-0.5,0.3-0.1,1.5-0.2,2.2c0.8-0.1,3.6-0.5,4.6,0.5c4.2,5.5-5.5,9.5-6.5,3.8c2.2-0.3,2.8,1.9,5,0.7c0.5-0.6,0.1-2.1,0.2-3.1
		c-2.1-1.6-3,0.9-5,0.7C209.7,81.6,209.7,79.4,209.7,77.3z"/>
	<path fill-rule="evenodd" clip-rule="evenodd" fill="#FFFFFF" d="M23,77.5c2.2,0.2,5.1-0.3,7,0.2c0,0.3,0,0.6,0,1
		c-0.7,1.1-3.3,0.2-4.8,0.5c-0.5,0.4-0.1,1.8-0.2,2.6c1.5,0.4,4.7-0.8,5,0.7c-0.4,1.6-3.5,0.3-5,0.7c0,1.5,0,3,0,4.6
		c-0.6,0-1.3,0-1.9,0C23,84.4,23,81,23,77.5z"/>
	<path fill-rule="evenodd" clip-rule="evenodd" fill="#FFFFFF" d="M31.9,77.5c2.3,0.2,5.3-0.3,7.2,0.2c0,0.3,0,0.6,0,1
		c-0.8,1.1-3.5,0.2-5,0.5c-0.5,0.4-0.1,1.8-0.2,2.6c1.5,0.4,4.7-0.8,5,0.7c-0.3,1.6-3.3,0.3-4.8,0.7c-0.6,0.5-0.1,2-0.2,2.9
		c1.7,0.2,4-0.3,5.3,0.2c0,0.3,0,0.6,0,1c-1.5,1.1-4.9,0.2-7.2,0.5C31.9,84.4,31.9,81,31.9,77.5z"/>
	<path fill-rule="evenodd" clip-rule="evenodd" fill="#FFFFFF" d="M50.1,77.5c2.7,0,5.4,0,8.2,0c0,0.6,0,1.1,0,1.7c-1,0-2.1,0-3.1,0
		c0,2.9,0,5.8,0,8.6c-0.6,0-1.3,0-1.9,0c0-2.8,0-5.6,0-8.4c-0.6-0.6-2.2-0.1-3.1-0.2C50.1,78.6,50.1,78.1,50.1,77.5z"/>
	<path fill-rule="evenodd" clip-rule="evenodd" fill="#FFFFFF" d="M61.4,77.5c-0.2,3.4,0.3,7.4-0.2,10.3c-0.3,0-0.6,0-1,0
		c-1.1-2.5-0.2-7-0.5-10.3C60.3,77.5,60.8,77.5,61.4,77.5z"/>
	<path fill-rule="evenodd" clip-rule="evenodd" fill="#FFFFFF" d="M62.8,77.5c0.6,0,1.3,0,1.9,0c0.8,2.6,1.8,5.1,2.6,7.7
		c1.3-2.3,1.9-5.1,2.9-7.7c0.6,0,1.3,0,1.9,0c-1.2,3.6-2.5,6.9-3.8,10.3c-0.6,0-1.3,0-1.9,0C65.5,84.1,63.8,81.2,62.8,77.5z"/>
	<path fill-rule="evenodd" clip-rule="evenodd" fill="#FFFFFF" d="M77.5,77.5c1.3,3.4,2.8,6.7,3.8,10.3c-0.6,0-1.3,0-1.9,0
		c-0.2-1-0.7-1.7-1-2.6c-1.3,0-2.6,0-3.8,0c-0.4,0.8-0.9,1.5-1,2.6c-0.6,0-1.3,0-1.9,0c1.1-3.7,2.6-6.8,3.8-10.3
		C76.2,77.5,76.8,77.5,77.5,77.5z M75.1,83.5c0.9,0,1.8,0,2.6,0c-0.4-1.3-0.5-2.9-1.4-3.6C75.9,81.2,75.5,82.4,75.1,83.5z"/>
	<path fill-rule="evenodd" clip-rule="evenodd" fill="#FFFFFF" d="M84.7,77.5c0,2.9,0,5.8,0,8.6c1.6,0.2,3.8-0.3,5,0.2
		c0,0.3,0,0.6,0,1c-1.4,1.1-4.8,0.2-7,0.5c0-3.4,0-6.9,0-10.3C83.4,77.5,84,77.5,84.7,77.5z"/>
	<path fill-rule="evenodd" clip-rule="evenodd" fill="#FFFFFF" d="M94.5,87.8c0-3.4,0-6.9,0-10.3c3,0.4,5.4-0.9,7.2,0.7
		c1.3,1.2,1.8,6.9,0.2,8.6C100.1,88.9,97.5,87.3,94.5,87.8z M96.2,85.9c1.1,0.5,3.5,0.3,4.3-0.2c0.6-1.8,0.7-4.7-0.2-6.2
		c-1-0.4-2.7-0.2-4.1-0.2C96.2,81.4,96.2,83.7,96.2,85.9z"/>
	<path fill-rule="evenodd" clip-rule="evenodd" fill="#FFFFFF" d="M104.8,77.5c2.3,0.2,5.3-0.3,7.2,0.2c0,0.3,0,0.6,0,1
		c-0.8,1.1-3.5,0.2-5,0.5c-0.5,0.4-0.1,1.8-0.2,2.6c1.5,0.4,4.7-0.8,5,0.7c-0.3,1.6-3.3,0.3-4.8,0.7c-0.6,0.5-0.1,2-0.2,2.9
		c1.7,0.2,4-0.3,5.3,0.2c0,0.3,0,0.6,0,1c-1.5,1.1-4.9,0.2-7.2,0.5C104.8,84.4,104.8,81,104.8,77.5z"/>
	<path fill-rule="evenodd" clip-rule="evenodd" fill="#FFFFFF" d="M132.4,77.5c1.2,3.6,2.6,6.8,3.8,10.3c-0.6,0-1.3,0-1.9,0
		c-0.4-0.8-0.7-1.7-1-2.6c-1.3,0-2.6,0-3.8,0c-0.8,0.5-0.7,1.9-1.2,2.6c-0.6,0-1.3,0-1.9,0c1.2-3.5,2.7-6.7,3.8-10.3
		C131,77.5,131.7,77.5,132.4,77.5z M130,83.5c0.9,0,1.8,0,2.6,0c-0.4-1.4-0.8-2.7-1.4-3.8C131,81.1,130.2,82,130,83.5z"/>
	<path fill-rule="evenodd" clip-rule="evenodd" fill="#FFFFFF" d="M137.5,77.5c0.7,0,1.4,0,2.2,0c1.1,2.5,2.7,4.5,3.8,7
		c0.6-1.8,0.1-4.7,0.2-7c0.6,0,1.1,0,1.7,0c0,3.4,0,6.9,0,10.3c-3.4,0.3-4.1-5.1-5.8-7c-0.6,1.8-0.1,4.7-0.2,7c-0.6,0-1.3,0-1.9,0
		C137.5,84.4,137.5,81,137.5,77.5z"/>
	<path fill-rule="evenodd" clip-rule="evenodd" fill="#FFFFFF" d="M148.5,77.5c0.7,0,1.4,0,2.2,0c1,2.6,2.7,4.5,3.8,7
		c0.6-1.8,0.1-4.7,0.2-7c0.6,0,1.1,0,1.7,0c0,3.4,0,6.9,0,10.3c-3.5,0.4-4.3-5.5-6-7.2c-0.6,1.9-0.1,4.9-0.2,7.2c-0.6,0-1.1,0-1.7,0
		C148.5,84.4,148.5,81,148.5,77.5z"/>
	<path fill-rule="evenodd" clip-rule="evenodd" fill="#FFFFFF" d="M159.6,77.5c2.3,0.2,5.3-0.3,7.2,0.2c0,0.3,0,0.6,0,1
		c-0.8,1.1-3.5,0.2-5,0.5c-0.5,0.4-0.1,1.8-0.2,2.6c1.5,0.4,4.7-0.8,5,0.7c-0.3,1.6-3.3,0.3-4.8,0.7c-0.6,0.5-0.1,2-0.2,2.9
		c1.7,0.2,4-0.3,5.3,0.2c0,0.3,0,0.6,0,1c-1.5,1.1-4.9,0.2-7.2,0.5C159.6,84.4,159.6,81,159.6,77.5z"/>
</g>
</svg>
