<?xml version="1.0" encoding="utf-8"?>
<!-- Generator: Adobe Illustrator 18.1.0, SVG Export Plug-In . SVG Version: 6.00 Build 0)  -->
<svg version="1.1" id="Layer_1" xmlns="http://www.w3.org/2000/svg" xmlns:xlink="http://www.w3.org/1999/xlink" x="0px" y="0px"
	 viewBox="-332 510.1 112 126" enable-background="new -332 510.1 112 126" xml:space="preserve">
<polygon fill="none" stroke="#040304" stroke-miterlimit="10" points="-297.9,529.3 -276.9,529.6 -255.9,529.8 -266.9,578.4 
	-277.9,627 -287.9,578.2 "/>
<polygon fill="none" stroke="#040304" stroke-miterlimit="10" points="-323.5,520.1 -298.3,529.7 -278.3,627.4 "/>
<g>
	<defs>
		<rect id="SVGID_1_" x="-404.4" y="336.1" width="595.3" height="841.9"/>
	</defs>
	<clipPath id="SVGID_2_">
		<use xlink:href="#SVGID_1_"  overflow="visible"/>
	</clipPath>
	<path clip-path="url(#SVGID_2_)" fill="none" stroke="#040304" stroke-miterlimit="10" d="M-278.1,627.5l49.7-107.2l-27.8,9.6
		L-278.1,627.5C-278.1,627.5-278.1,627.5-278.1,627.5z"/>
</g>
<g>
	<defs>
		<rect id="SVGID_3_" x="-404.4" y="336.1" width="595.3" height="841.9"/>
	</defs>
	<clipPath id="SVGID_4_">
		<use xlink:href="#SVGID_3_"  overflow="visible"/>
	</clipPath>
	
		<line clip-path="url(#SVGID_4_)" fill="none" stroke="#040304" stroke-miterlimit="10" x1="-255.4" y1="564.6" x2="-257.1" y2="568.7"/>
</g>
<g>
	<defs>
		<rect id="SVGID_5_" x="-404.4" y="336.1" width="595.3" height="841.9"/>
	</defs>
	<clipPath id="SVGID_6_">
		<use xlink:href="#SVGID_5_"  overflow="visible"/>
	</clipPath>
	
		<line clip-path="url(#SVGID_6_)" fill="none" stroke="#040304" stroke-miterlimit="10" x1="-297.9" y1="564.6" x2="-296.1" y2="568.7"/>
</g>
<g>
	<defs>
		<rect id="SVGID_7_" x="-404.4" y="336.1" width="595.3" height="841.9"/>
	</defs>
	<clipPath id="SVGID_8_">
		<use xlink:href="#SVGID_7_"  overflow="visible"/>
	</clipPath>
	<polygon clip-path="url(#SVGID_8_)" fill="#040304" points="-288.8,529.7 -277.3,529.7 -265.8,529.7 -271.4,563.4 -277.1,597.1 
		-282.9,563.4 	"/>
</g>
</svg>
