<?xml version="1.0" encoding="utf-8"?>
<!-- Generator: Adobe Illustrator 18.1.0, SVG Export Plug-In . SVG Version: 6.00 Build 0)  -->
<svg version="1.1" id="Layer_1" xmlns="http://www.w3.org/2000/svg" xmlns:xlink="http://www.w3.org/1999/xlink" x="0px" y="0px"
	 viewBox="-300.3 492.6 348.5 106.7" enable-background="new -300.3 492.6 348.5 106.7" xml:space="preserve">
<g>
	<g id="XMLID_2_">
		<path d="M44.2,508.4c0,25.3,0,50.6,0,75.8c-2.2,0-4.3,0-6.5,0c0-16,0-32,0-48c-2.9,10.3-5.4,21-8.2,31.4
			c-2.8-10.2-5.4-20.5-7.9-31c-0.6,15.4-0.1,31.8-0.2,47.5c-2.2,0-4.3,0-6.5,0c0.2-25.3-0.3-51.2,0.2-76.1c2.1,0,4.2,0,6.2,0
			c2.4,11.2,5.5,21.9,7.9,33.1c3.2-10.6,5.6-22.1,8.4-33.1C39.9,508.3,42.5,507.9,44.2,508.4z"/>
		<path d="M10.2,578c0,2.1,0,4.2,0,6.2c-7.2,0-14.4,0-21.6,0c0-25.1,0-50.2,0-75.4c0-0.3,0-0.7,0.2-0.7c2,0.1,4.6-0.3,6.2,0.2
			c0,23.1,0,46.2,0,69.4C-0.4,578.4,5.2,577.9,10.2,578z"/>
		<path d="M-18.4,508.2c0,25.4,0,50.7,0,76.1c-2.2,0-4.3,0-6.5,0c0-25.1,0-50.2,0-75.4c0-0.3,0-0.7,0.2-0.7
			C-22.6,508.2-20.5,508.2-18.4,508.2z"/>
		<path d="M-29.9,508.2c0,2.2,0,4.3,0,6.5c-5,0-9.9,0-14.9,0c-0.6,8.9-0.1,18.8-0.2,28.1c3.7,0.6,8.4,0.1,12.5,0.2
			c0.5,1.7,0.1,4.4,0.2,6.5c-4.2,0-8.5,0-12.7,0c0,11.6,0,23.2,0,34.8c-2.2,0-4.3,0-6.5,0c0.2-25.3-0.3-51.2,0.2-76.1
			C-44.2,508.2-37,508.2-29.9,508.2z"/>
		<path d="M-69.8,510.8c3.8-1.4,7.4-2.5,10.6-3.4c-11.8,25.7-24,51.1-35.5,77c-10.6-25.9-21.4-51.6-32.4-77
			c4.9,0.2,13.3,5.9,18.7,6.7c4.3,0.7,9.5,0,14.2,0.2c4.8,0.2,9.9,0.6,14.2,0C-76.7,514-73,512-69.8,510.8z M-61.4,509.4
			c-6.1,1.8-11.9,4-17.8,6c-4.4,20.5-9,40.8-13.7,61c0,0.2,0.1,0.6,0.2,0.2C-82.1,554.3-71.8,531.8-61.4,509.4z M-80.3,515.6
			c-2.2,0.2-3.6-0.4-5.8-0.2c-2.8,15.2-5,31-7.9,46.1c-2.6-15.4-5.4-30.6-7.9-46.1c-2.3,0.2-3.8-0.4-6-0.2
			c4.4,21.5,8.6,43,13.2,64.3C-89.9,558.2-85,537-80.3,515.6z M-96.9,576.1c-3.4-19.1-8.3-41.1-12.2-61c-5.2-2-10.5-4.1-15.8-6
			C-115.7,531.6-106.1,553.7-96.9,576.1z"/>
		<path d="M-79.6,538.7c0.7-0.2,0.6,0.3,1.2,0.2c-0.3,1.1-0.8,2.1-1.2,3.1c-0.2-0.2-0.5-0.3-1-0.2C-80.6,540.4-79.6,540-79.6,538.7z
			"/>
		<path d="M-108.6,538.9c1.1-0.6,2.5,2.4,1.4,3.1C-108.1,541.6-108.8,539.7-108.6,538.9z"/>
		<path d="M-125,584.3c-2.2,0-4.5,0-6.7,0c-0.5-4.4-1.4-8.4-1.9-12.7c-4.7,0-9.4,0-14.2,0c-1.1,3.9-1.5,8.4-2.2,12.7
			c-2.2,0-4.5,0-6.7,0c4.3-25.3,7.9-51.3,12.7-76.1c2.1,0,4.2,0,6.2,0C-133.3,533.5-129.1,558.9-125,584.3z M-146.8,565.3
			c4,0,8,0,12,0c-2.1-12.5-3.8-25.4-6.2-37.7C-142.8,540.4-145.2,552.5-146.8,565.3z"/>
		<path d="M-159.5,508.4c0,25.3,0,50.6,0,75.8c-2.2,0-4.3,0-6.5,0c0-25.1,0-50.2,0-75.4c0-0.3,0-0.7,0.2-0.7
			C-163.7,508.3-161.1,507.9-159.5,508.4z"/>
		<path d="M-172.7,508.4c0,25.3,0,50.6,0,75.8c-2.2,0-4.3,0-6.5,0c0-16,0-32,0-48c-2.9,10.3-5.4,21-8.2,31.4
			c-2.8-10.1-5.5-20.5-7.9-31c-0.6,15.4-0.1,31.8-0.2,47.5c-2.2,0-4.3,0-6.5,0c0.2-25.3-0.3-51.2,0.2-76.1c2,0,4,0,6,0
			c2.8,11,5.6,22,8.2,33.4c3.1-10.8,5.6-22.3,8.4-33.4C-177.1,508.3-174.4,507.9-172.7,508.4z"/>
		<path d="M-209,556.7c0,12.6,1,23.5-7.9,27.4c-8.9,3.8-16.3-3.8-17.3-11.5c-0.6-4.7,0-10.4,0-16.1c0-14.8,0-33.5,0-47.5
			c0-0.3,0-0.7,0.2-0.7c2,0,4,0,6,0c0,18.8,0,38.1,0,57.6c0,6.2,0.7,12.6,6.2,12.7c5.8,0.1,6.5-6.4,6.5-12.7c0-19.1,0-38.8,0-57.6
			c2.1,0,4.2,0,6.2,0C-209,523.8-209,540.5-209,556.7z"/>
		<path d="M-241.1,518.8c1.4,6.7,0.2,20.5,0.2,28.3c0,4.6,0,8.6,0,14.2c0,4.4,0.5,10.2-0.5,13.7c-1.8,6.1-7.7,12.1-15.8,9.4
			c-4.2-1.4-7.6-5.5-8.6-10.6c-0.9-4.4-0.2-9.6-0.2-13.7c0-8.5,0-18.6,0-27.6c0-12.1,0.1-20.1,7.4-23.8c1.4-0.7,3.3-0.9,5-1
			C-247.1,507.5-242.3,513.2-241.1,518.8z M-247.1,547.3c0-9.6,3.3-35.9-7.9-32.9c-6.2,1.7-4.8,12.7-4.8,20.4c0,4.7,0,10.9,0,16.8
			c0,9.8-2.3,27.3,6.7,26.9c5.1-0.2,6-5.8,6-12.5C-247.1,559.9-247.1,554-247.1,547.3z"/>
		<path d="M-272.8,508.2c0,25.4,0,50.7,0,76.1c-2.2,0-4.3,0-6.5,0c-4-16.3-8.3-32.3-12.2-48.7c-0.6,15.8-0.1,32.6-0.2,48.7
			c-2.2,0-4.3,0-6.5,0c0-25.1,0-50.2,0-75.4c0-0.3,0-0.7,0.2-0.7c2,0,4,0,6,0c4.3,16.2,8.5,32.6,12.5,49.2
			c0.6-15.9,0.1-32.9,0.2-49.2C-277.1,508.2-275,508.2-272.8,508.2z"/>
	</g>
	<g>
		<line fill="none" stroke="#000000" stroke-miterlimit="10" x1="-298.1" y1="596.2" x2="48.2" y2="596.2"/>
		<line fill="none" stroke="#000000" stroke-miterlimit="10" x1="-298.1" y1="599.2" x2="48.2" y2="599.2"/>
	</g>
	<g>
		<line fill="none" stroke="#000000" stroke-miterlimit="10" x1="-300.3" y1="492.6" x2="46" y2="492.6"/>
		<line fill="none" stroke="#000000" stroke-miterlimit="10" x1="-300.3" y1="495.6" x2="46" y2="495.6"/>
	</g>
</g>
</svg>
